ISO-10303-21;
HEADER;
FILE_DESCRIPTION(('Open CASCADE Model'),'2;1');
FILE_NAME('Open CASCADE Shape Model','2026-07-21T15:31:28',('Author'),(
    'Open CASCADE'),'Open CASCADE STEP processor 7.9','Open CASCADE 7.9'
  ,'Unknown');
FILE_SCHEMA(('AUTOMOTIVE_DESIGN { 1 0 10303 214 1 1 1 1 }'));
ENDSEC;
DATA;
#1 = APPLICATION_PROTOCOL_DEFINITION('international standard',
  'automotive_design',2000,#2);
#2 = APPLICATION_CONTEXT(
  'core data for automotive mechanical design processes');
#3 = SHAPE_DEFINITION_REPRESENTATION(#4,#10);
#4 = PRODUCT_DEFINITION_SHAPE('','',#5);
#5 = PRODUCT_DEFINITION('design','',#6,#9);
#6 = PRODUCT_DEFINITION_FORMATION('','',#7);
#7 = PRODUCT('Open CASCADE STEP translator 7.9 2',
  'Open CASCADE STEP translator 7.9 2','',(#8));
#8 = PRODUCT_CONTEXT('',#2,'mechanical');
#9 = PRODUCT_DEFINITION_CONTEXT('part definition',#2,'design');
#10 = SHAPE_REPRESENTATION('',(#11,#15,#19),#23);
#11 = AXIS2_PLACEMENT_3D('',#12,#13,#14);
#12 = CARTESIAN_POINT('',(0.,0.,0.));
#13 = DIRECTION('',(0.,0.,1.));
#14 = DIRECTION('',(1.,0.,-0.));
#15 = AXIS2_PLACEMENT_3D('',#16,#17,#18);
#16 = CARTESIAN_POINT('',(0.,0.,0.));
#17 = DIRECTION('',(0.,0.,1.));
#18 = DIRECTION('',(1.,0.,-0.));
#19 = AXIS2_PLACEMENT_3D('',#20,#21,#22);
#20 = CARTESIAN_POINT('',(0.,0.,0.));
#21 = DIRECTION('',(0.,0.,1.));
#22 = DIRECTION('',(1.,0.,-0.));
#23 = ( GEOMETRIC_REPRESENTATION_CONTEXT(3) 
GLOBAL_UNCERTAINTY_ASSIGNED_CONTEXT((#27)) GLOBAL_UNIT_ASSIGNED_CONTEXT(
(#24,#25,#26)) REPRESENTATION_CONTEXT('Context #1',
  '3D Context with UNIT and UNCERTAINTY') );
#24 = ( LENGTH_UNIT() NAMED_UNIT(*) SI_UNIT(.MILLI.,.METRE.) );
#25 = ( NAMED_UNIT(*) PLANE_ANGLE_UNIT() SI_UNIT($,.RADIAN.) );
#26 = ( NAMED_UNIT(*) SI_UNIT($,.STERADIAN.) SOLID_ANGLE_UNIT() );
#27 = UNCERTAINTY_MEASURE_WITH_UNIT(LENGTH_MEASURE(1.E-07),#24,
  'distance_accuracy_value','confusion accuracy');
#28 = PRODUCT_RELATED_PRODUCT_CATEGORY('part',$,(#7));
#29 = SHAPE_DEFINITION_REPRESENTATION(#30,#36);
#30 = PRODUCT_DEFINITION_SHAPE('','',#31);
#31 = PRODUCT_DEFINITION('design','',#32,#35);
#32 = PRODUCT_DEFINITION_FORMATION('','',#33);
#33 = PRODUCT('Open CASCADE STEP translator 7.9 2.1',
  'Open CASCADE STEP translator 7.9 2.1','',(#34));
#34 = PRODUCT_CONTEXT('',#2,'mechanical');
#35 = PRODUCT_DEFINITION_CONTEXT('part definition',#2,'design');
#36 = ADVANCED_BREP_SHAPE_REPRESENTATION('',(#11,#37),#951);
#37 = MANIFOLD_SOLID_BREP('',#38);
#38 = CLOSED_SHELL('',(#39,#529,#560,#586,#591,#735,#785,#835,#885,#935)
  );
#39 = ADVANCED_FACE('',(#40,#127),#53,.T.);
#40 = FACE_BOUND('',#41,.F.);
#41 = EDGE_LOOP('',(#42,#76,#99,#126));
#42 = ORIENTED_EDGE('',*,*,#43,.F.);
#43 = EDGE_CURVE('',#44,#44,#46,.T.);
#44 = VERTEX_POINT('',#45);
#45 = CARTESIAN_POINT('',(38.5,0.,0.));
#46 = SURFACE_CURVE('',#47,(#52,#64),.PCURVE_S1.);
#47 = CIRCLE('',#48,38.5);
#48 = AXIS2_PLACEMENT_3D('',#49,#50,#51);
#49 = CARTESIAN_POINT('',(0.,0.,0.));
#50 = DIRECTION('',(0.,0.,1.));
#51 = DIRECTION('',(1.,0.,0.));
#52 = PCURVE('',#53,#58);
#53 = CYLINDRICAL_SURFACE('',#54,38.5);
#54 = AXIS2_PLACEMENT_3D('',#55,#56,#57);
#55 = CARTESIAN_POINT('',(0.,0.,0.));
#56 = DIRECTION('',(-0.,-0.,-1.));
#57 = DIRECTION('',(1.,0.,0.));
#58 = DEFINITIONAL_REPRESENTATION('',(#59),#63);
#59 = LINE('',#60,#61);
#60 = CARTESIAN_POINT('',(-0.,0.));
#61 = VECTOR('',#62,1.);
#62 = DIRECTION('',(-1.,0.));
#63 = ( GEOMETRIC_REPRESENTATION_CONTEXT(2) 
PARAMETRIC_REPRESENTATION_CONTEXT() REPRESENTATION_CONTEXT('2D SPACE',''
  ) );
#64 = PCURVE('',#65,#70);
#65 = PLANE('',#66);
#66 = AXIS2_PLACEMENT_3D('',#67,#68,#69);
#67 = CARTESIAN_POINT('',(-2.273147233312E-15,7.015171744065E-16,0.));
#68 = DIRECTION('',(0.,0.,1.));
#69 = DIRECTION('',(1.,0.,-0.));
#70 = DEFINITIONAL_REPRESENTATION('',(#71),#75);
#71 = CIRCLE('',#72,38.5);
#72 = AXIS2_PLACEMENT_2D('',#73,#74);
#73 = CARTESIAN_POINT('',(2.273147233312E-15,-7.015171744065E-16));
#74 = DIRECTION('',(1.,0.));
#75 = ( GEOMETRIC_REPRESENTATION_CONTEXT(2) 
PARAMETRIC_REPRESENTATION_CONTEXT() REPRESENTATION_CONTEXT('2D SPACE',''
  ) );
#76 = ORIENTED_EDGE('',*,*,#77,.T.);
#77 = EDGE_CURVE('',#44,#78,#80,.T.);
#78 = VERTEX_POINT('',#79);
#79 = CARTESIAN_POINT('',(38.5,0.,24.));
#80 = SEAM_CURVE('',#81,(#85,#92),.PCURVE_S1.);
#81 = LINE('',#82,#83);
#82 = CARTESIAN_POINT('',(38.5,0.,0.));
#83 = VECTOR('',#84,1.);
#84 = DIRECTION('',(0.,0.,1.));
#85 = PCURVE('',#53,#86);
#86 = DEFINITIONAL_REPRESENTATION('',(#87),#91);
#87 = LINE('',#88,#89);
#88 = CARTESIAN_POINT('',(-0.,0.));
#89 = VECTOR('',#90,1.);
#90 = DIRECTION('',(-0.,-1.));
#91 = ( GEOMETRIC_REPRESENTATION_CONTEXT(2) 
PARAMETRIC_REPRESENTATION_CONTEXT() REPRESENTATION_CONTEXT('2D SPACE',''
  ) );
#92 = PCURVE('',#53,#93);
#93 = DEFINITIONAL_REPRESENTATION('',(#94),#98);
#94 = LINE('',#95,#96);
#95 = CARTESIAN_POINT('',(-6.28318530718,0.));
#96 = VECTOR('',#97,1.);
#97 = DIRECTION('',(-0.,-1.));
#98 = ( GEOMETRIC_REPRESENTATION_CONTEXT(2) 
PARAMETRIC_REPRESENTATION_CONTEXT() REPRESENTATION_CONTEXT('2D SPACE',''
  ) );
#99 = ORIENTED_EDGE('',*,*,#100,.T.);
#100 = EDGE_CURVE('',#78,#78,#101,.T.);
#101 = SURFACE_CURVE('',#102,(#107,#114),.PCURVE_S1.);
#102 = CIRCLE('',#103,38.5);
#103 = AXIS2_PLACEMENT_3D('',#104,#105,#106);
#104 = CARTESIAN_POINT('',(0.,0.,24.));
#105 = DIRECTION('',(0.,0.,1.));
#106 = DIRECTION('',(1.,0.,0.));
#107 = PCURVE('',#53,#108);
#108 = DEFINITIONAL_REPRESENTATION('',(#109),#113);
#109 = LINE('',#110,#111);
#110 = CARTESIAN_POINT('',(-0.,-24.));
#111 = VECTOR('',#112,1.);
#112 = DIRECTION('',(-1.,0.));
#113 = ( GEOMETRIC_REPRESENTATION_CONTEXT(2) 
PARAMETRIC_REPRESENTATION_CONTEXT() REPRESENTATION_CONTEXT('2D SPACE',''
  ) );
#114 = PCURVE('',#115,#120);
#115 = PLANE('',#116);
#116 = AXIS2_PLACEMENT_3D('',#117,#118,#119);
#117 = CARTESIAN_POINT('',(-2.273147233312E-15,7.015171744065E-16,24.));
#118 = DIRECTION('',(0.,0.,1.));
#119 = DIRECTION('',(1.,0.,-0.));
#120 = DEFINITIONAL_REPRESENTATION('',(#121),#125);
#121 = CIRCLE('',#122,38.5);
#122 = AXIS2_PLACEMENT_2D('',#123,#124);
#123 = CARTESIAN_POINT('',(2.273147233312E-15,-7.015171744065E-16));
#124 = DIRECTION('',(1.,0.));
#125 = ( GEOMETRIC_REPRESENTATION_CONTEXT(2) 
PARAMETRIC_REPRESENTATION_CONTEXT() REPRESENTATION_CONTEXT('2D SPACE',''
  ) );
#126 = ORIENTED_EDGE('',*,*,#77,.F.);
#127 = FACE_BOUND('',#128,.F.);
#128 = EDGE_LOOP('',(#129,#336));
#129 = ORIENTED_EDGE('',*,*,#130,.F.);
#130 = EDGE_CURVE('',#131,#133,#135,.T.);
#131 = VERTEX_POINT('',#132);
#132 = CARTESIAN_POINT('',(3.673940397442E-16,38.5,18.));
#133 = VERTEX_POINT('',#134);
#134 = CARTESIAN_POINT('',(-1.102182119233E-15,38.5,6.));
#135 = SURFACE_CURVE('',#136,(#199,#265),.PCURVE_S1.);
#136 = B_SPLINE_CURVE_WITH_KNOTS('',7,(#137,#138,#139,#140,#141,#142,
    #143,#144,#145,#146,#147,#148,#149,#150,#151,#152,#153,#154,#155,
    #156,#157,#158,#159,#160,#161,#162,#163,#164,#165,#166,#167,#168,
    #169,#170,#171,#172,#173,#174,#175,#176,#177,#178,#179,#180,#181,
    #182,#183,#184,#185,#186,#187,#188,#189,#190,#191,#192,#193,#194,
    #195,#196,#197,#198),.UNSPECIFIED.,.T.,.F.,(8,6,6,6,6,6,6,6,6,6,8),(
    0.,0.133971219555,0.21853725487,0.294617635084,0.400156038545,
    0.499367939893,0.633730417036,0.718543423672,0.794845993756,
    0.887205056108,1.),.UNSPECIFIED.);
#137 = CARTESIAN_POINT('',(6.,38.029593739613,12.));
#138 = CARTESIAN_POINT('',(6.,38.029593739613,12.623760180061));
#139 = CARTESIAN_POINT('',(5.92434587061,38.041529620835,13.24649114915)
  );
#140 = CARTESIAN_POINT('',(5.773489670779,38.065331522457,
    13.863406433358));
#141 = CARTESIAN_POINT('',(5.545341512132,38.1003527593,14.469311520959)
  );
#142 = CARTESIAN_POINT('',(5.235997792982,38.145306459793,
    15.056954025117));
#143 = CARTESIAN_POINT('',(4.840114533748,38.197701342086,
    15.616021527781));
#144 = CARTESIAN_POINT('',(4.044291363286,38.288245862016,
    16.454644168052));
#145 = CARTESIAN_POINT('',(3.697461356473,38.324776828351,
    16.763590110499));
#146 = CARTESIAN_POINT('',(3.311358672408,38.361524705421,
    17.050345420119));
#147 = CARTESIAN_POINT('',(2.886541925423,38.396846028562,
    17.308053859592));
#148 = CARTESIAN_POINT('',(2.424525329457,38.428798199919,17.52962223276
    ));
#149 = CARTESIAN_POINT('',(1.927913582458,38.455318242525,
    17.707640061501));
#150 = CARTESIAN_POINT('',(0.92633605072,38.491780869191,17.948097552443
    ));
#151 = CARTESIAN_POINT('',(0.430713367051,38.502992257168,
    18.019501110149));
#152 = CARTESIAN_POINT('',(-7.628266110129E-02,38.506697061632,
    18.042260284535));
#153 = CARTESIAN_POINT('',(-0.583751444797,38.502180009738,
    18.014030848584));
#154 = CARTESIAN_POINT('',(-1.080652123502,38.489850208423,
    17.936197094093));
#155 = CARTESIAN_POINT('',(-1.556649634254,38.471112136708,
    17.813853651098));
#156 = CARTESIAN_POINT('',(-2.621796274288,38.415626108871,
    17.436665443393));
#157 = CARTESIAN_POINT('',(-3.183957617676,38.374685035236,
    17.148659872292));
#158 = CARTESIAN_POINT('',(-3.686451272154,38.329006383621,
    16.807740357294));
#159 = CARTESIAN_POINT('',(-4.129185470963,38.28220497059,
    16.426540185689));
#160 = CARTESIAN_POINT('',(-4.513515635958,38.237003171263,
    16.015348795685));
#161 = CARTESIAN_POINT('',(-4.841558504349,38.195364827988,
    15.58257971893));
#162 = CARTESIAN_POINT('',(-5.373681597987,38.12402422123,
    14.714233750818));
#163 = CARTESIAN_POINT('',(-5.585139998039,38.093605144976,
    14.278541600813));
#164 = CARTESIAN_POINT('',(-5.752161268982,38.068407240384,
    13.832340132445));
#165 = CARTESIAN_POINT('',(-5.876326705937,38.049105534505,
    13.378935161563));
#166 = CARTESIAN_POINT('',(-5.95875238345,38.036101599486,
    12.920933452152));
#167 = CARTESIAN_POINT('',(-6.,38.029593739613,12.460578246632));
#168 = CARTESIAN_POINT('',(-6.,38.029593739613,11.376239813022));
#169 = CARTESIAN_POINT('',(-5.924345875654,38.041529620214,
    10.75350887736));
#170 = CARTESIAN_POINT('',(-5.773489654378,38.065331524454,
    10.136593519848));
#171 = CARTESIAN_POINT('',(-5.545341535345,38.100352756521,
    9.530688524572));
#172 = CARTESIAN_POINT('',(-5.235997776126,38.145306461766,
    8.943045950587));
#173 = CARTESIAN_POINT('',(-4.840114539301,38.197701341454,
    8.383978478071));
#174 = CARTESIAN_POINT('',(-4.044291361239,38.288245862249,
    7.545355829791));
#175 = CARTESIAN_POINT('',(-3.697461362562,38.324776827855,
    7.236409893736));
#176 = CARTESIAN_POINT('',(-3.3113586677,38.361524705663,6.949654578118)
  );
#177 = CARTESIAN_POINT('',(-2.886541921883,38.396846028877,
    6.691946137703));
#178 = CARTESIAN_POINT('',(-2.424525336967,38.428798199511,
    6.470377770335));
#179 = CARTESIAN_POINT('',(-1.927913578833,38.455318242657,
    6.292359937629));
#180 = CARTESIAN_POINT('',(-0.92633605072,38.491780869191,6.051902447557
    ));
#181 = CARTESIAN_POINT('',(-0.430713367051,38.502992257168,
    5.980498889851));
#182 = CARTESIAN_POINT('',(7.628266110072E-02,38.506697061632,
    5.957739715463));
#183 = CARTESIAN_POINT('',(0.583751444799,38.502180009737,5.985969151418
    ));
#184 = CARTESIAN_POINT('',(1.0806521235,38.489850208423,6.063802905906)
  );
#185 = CARTESIAN_POINT('',(1.556649634254,38.471112136708,6.186146348903
    ));
#186 = CARTESIAN_POINT('',(2.542925591322,38.419734670778,6.535404982941
    ));
#187 = CARTESIAN_POINT('',(3.040294915815,38.384950320776,6.779246260025
    ));
#188 = CARTESIAN_POINT('',(3.492707668953,38.346132827169,7.065222725689
    ));
#189 = CARTESIAN_POINT('',(3.899571138718,38.305738588809,7.384584117517
    ));
#190 = CARTESIAN_POINT('',(4.261298289427,38.265762492838,7.729850628854
    ));
#191 = CARTESIAN_POINT('',(4.578957661567,38.227739587653,8.094584839759
    ));
#192 = CARTESIAN_POINT('',(5.19012623521,38.150063248362,8.935786214882)
  );
#193 = CARTESIAN_POINT('',(5.464582842083,38.111676405804,9.421655644012
    ));
#194 = CARTESIAN_POINT('',(5.680559885171,38.079512631972,9.923393042778
    ));
#195 = CARTESIAN_POINT('',(5.840683804112,38.054729377263,
    10.435725076735));
#196 = CARTESIAN_POINT('',(5.946844280144,38.037980210969,10.95471939606
    ));
#197 = CARTESIAN_POINT('',(6.,38.029593739613,11.47714631005));
#198 = CARTESIAN_POINT('',(6.,38.029593739613,12.));
#199 = PCURVE('',#53,#200);
#200 = DEFINITIONAL_REPRESENTATION('',(#201),#264);
#201 = B_SPLINE_CURVE_WITH_KNOTS('',7,(#202,#203,#204,#205,#206,#207,
    #208,#209,#210,#211,#212,#213,#214,#215,#216,#217,#218,#219,#220,
    #221,#222,#223,#224,#225,#226,#227,#228,#229,#230,#231,#232,#233,
    #234,#235,#236,#237,#238,#239,#240,#241,#242,#243,#244,#245,#246,
    #247,#248,#249,#250,#251,#252,#253,#254,#255,#256,#257,#258,#259,
    #260,#261,#262,#263),.UNSPECIFIED.,.T.,.F.,(8,6,6,6,6,6,6,6,6,6,8),(
    0.,0.133971219555,0.21853725487,0.294617635084,0.400156038545,
    0.499367939893,0.633730417036,0.718543423672,0.794845993756,
    0.887205056108,1.),.UNSPECIFIED.);
#202 = CARTESIAN_POINT('',(-1.41431433334,-12.));
#203 = CARTESIAN_POINT('',(-1.41431433334,-12.62376018006));
#204 = CARTESIAN_POINT('',(-1.416303679708,-13.24649114914));
#205 = CARTESIAN_POINT('',(-1.420270503971,-13.86340643335));
#206 = CARTESIAN_POINT('',(-1.426265758676,-14.46931152095));
#207 = CARTESIAN_POINT('',(-1.434384531459,-15.05695402511));
#208 = CARTESIAN_POINT('',(-1.444755145294,-15.61602152778));
#209 = CARTESIAN_POINT('',(-1.465559234775,-16.45464416805));
#210 = CARTESIAN_POINT('',(-1.474617315372,-16.76359011049));
#211 = CARTESIAN_POINT('',(-1.484690452275,-17.05034542011));
#212 = CARTESIAN_POINT('',(-1.495761114257,-17.30805385959));
#213 = CARTESIAN_POINT('',(-1.507788027594,-17.52962223276));
#214 = CARTESIAN_POINT('',(-1.520703546999,-17.7076400615));
#215 = CARTESIAN_POINT('',(-1.546735781454,-17.94809755244));
#216 = CARTESIAN_POINT('',(-1.559611170742,-18.01950111014));
#217 = CARTESIAN_POINT('',(-1.572777739068,-18.04226028453));
#218 = CARTESIAN_POINT('',(-1.585956161491,-18.01403084858));
#219 = CARTESIAN_POINT('',(-1.598864414559,-17.93619709409));
#220 = CARTESIAN_POINT('',(-1.61123656374,-17.81385365109));
#221 = CARTESIAN_POINT('',(-1.638940222458,-17.43666544339));
#222 = CARTESIAN_POINT('',(-1.653577361402,-17.14865987229));
#223 = CARTESIAN_POINT('',(-1.666680027042,-16.80774035729));
#224 = CARTESIAN_POINT('',(-1.678242102121,-16.42654018568));
#225 = CARTESIAN_POINT('',(-1.68829277946,-16.01534879568));
#226 = CARTESIAN_POINT('',(-1.696881529137,-15.58257971893));
#227 = CARTESIAN_POINT('',(-1.710826569054,-14.71423375081));
#228 = CARTESIAN_POINT('',(-1.716375280554,-14.27854160081));
#229 = CARTESIAN_POINT('',(-1.720762488379,-13.83234013244));
#230 = CARTESIAN_POINT('',(-1.724026298508,-13.37893516156));
#231 = CARTESIAN_POINT('',(-1.726193698792,-12.92093345215));
#232 = CARTESIAN_POINT('',(-1.72727832025,-12.46057824663));
#233 = CARTESIAN_POINT('',(-1.72727832025,-11.37623981302));
#234 = CARTESIAN_POINT('',(-1.725288974014,-10.75350887736));
#235 = CARTESIAN_POINT('',(-1.721322149189,-10.13659351984));
#236 = CARTESIAN_POINT('',(-1.715326895521,-9.530688524572));
#237 = CARTESIAN_POINT('',(-1.707208121689,-8.943045950587));
#238 = CARTESIAN_POINT('',(-1.696837508441,-8.383978478071));
#239 = CARTESIAN_POINT('',(-1.676033418762,-7.545355829791));
#240 = CARTESIAN_POINT('',(-1.666975338377,-7.236409893736));
#241 = CARTESIAN_POINT('',(-1.656902201192,-6.949654578118));
#242 = CARTESIAN_POINT('',(-1.645831539241,-6.691946137703));
#243 = CARTESIAN_POINT('',(-1.633804626191,-6.470377770335));
#244 = CARTESIAN_POINT('',(-1.620889106497,-6.292359937629));
#245 = CARTESIAN_POINT('',(-1.594856872136,-6.051902447557));
#246 = CARTESIAN_POINT('',(-1.581981482848,-5.980498889852));
#247 = CARTESIAN_POINT('',(-1.568814914522,-5.957739715462));
#248 = CARTESIAN_POINT('',(-1.555636492099,-5.985969151418));
#249 = CARTESIAN_POINT('',(-1.542728239031,-6.063802905906));
#250 = CARTESIAN_POINT('',(-1.53035608985,-6.186146348903));
#251 = CARTESIAN_POINT('',(-1.504703797959,-6.535404982941));
#252 = CARTESIAN_POINT('',(-1.491755606808,-6.779246260025));
#253 = CARTESIAN_POINT('',(-1.479963552611,-7.065222725689));
#254 = CARTESIAN_POINT('',(-1.469345024935,-7.384584117517));
#255 = CARTESIAN_POINT('',(-1.459892971999,-7.729850628854));
#256 = CARTESIAN_POINT('',(-1.451583401887,-8.094584839759));
#257 = CARTESIAN_POINT('',(-1.435581195953,-8.935786214882));
#258 = CARTESIAN_POINT('',(-1.428383629756,-9.421655644012));
#259 = CARTESIAN_POINT('',(-1.422712162302,-9.923393042777));
#260 = CARTESIAN_POINT('',(-1.418503604774,-10.43572507673));
#261 = CARTESIAN_POINT('',(-1.415712078976,-10.95471939606));
#262 = CARTESIAN_POINT('',(-1.41431433334,-11.47714631005));
#263 = CARTESIAN_POINT('',(-1.41431433334,-12.));
#264 = ( GEOMETRIC_REPRESENTATION_CONTEXT(2) 
PARAMETRIC_REPRESENTATION_CONTEXT() REPRESENTATION_CONTEXT('2D SPACE',''
  ) );
#265 = PCURVE('',#266,#271);
#266 = CYLINDRICAL_SURFACE('',#267,6.);
#267 = AXIS2_PLACEMENT_3D('',#268,#269,#270);
#268 = CARTESIAN_POINT('',(0.,38.5,12.));
#269 = DIRECTION('',(-0.,1.,-0.));
#270 = DIRECTION('',(1.,0.,0.));
#271 = DEFINITIONAL_REPRESENTATION('',(#272),#335);
#272 = B_SPLINE_CURVE_WITH_KNOTS('',7,(#273,#274,#275,#276,#277,#278,
    #279,#280,#281,#282,#283,#284,#285,#286,#287,#288,#289,#290,#291,
    #292,#293,#294,#295,#296,#297,#298,#299,#300,#301,#302,#303,#304,
    #305,#306,#307,#308,#309,#310,#311,#312,#313,#314,#315,#316,#317,
    #318,#319,#320,#321,#322,#323,#324,#325,#326,#327,#328,#329,#330,
    #331,#332,#333,#334),.UNSPECIFIED.,.F.,.F.,(8,6,6,6,6,6,6,6,6,6,8),(
    0.,0.133971219555,0.21853725487,0.294617635084,0.400156038545,
    0.499367939893,0.633730417036,0.718543423672,0.794845993756,
    0.887205056108,1.),.UNSPECIFIED.);
#273 = CARTESIAN_POINT('',(0.,-0.470406260387));
#274 = CARTESIAN_POINT('',(-0.10396003001,-0.470406260387));
#275 = CARTESIAN_POINT('',(-0.207748292833,-0.458470379165));
#276 = CARTESIAN_POINT('',(-0.31240379775,-0.434668477543));
#277 = CARTESIAN_POINT('',(-0.418863599438,-0.3996472407));
#278 = CARTESIAN_POINT('',(-0.528086703941,-0.354693540207));
#279 = CARTESIAN_POINT('',(-0.641093950467,-0.302298657914));
#280 = CARTESIAN_POINT('',(-0.833781265639,-0.211754137984));
#281 = CARTESIAN_POINT('',(-0.910922158638,-0.175223171649));
#282 = CARTESIAN_POINT('',(-0.990561636271,-0.138475294579));
#283 = CARTESIAN_POINT('',(-1.07269810484,-0.103153971438));
#284 = CARTESIAN_POINT('',(-1.157398037444,-7.120180008062E-02));
#285 = CARTESIAN_POINT('',(-1.24480636681,-4.468175747456E-02));
#286 = CARTESIAN_POINT('',(-1.416479292022,-8.219130808762E-03));
#287 = CARTESIAN_POINT('',(-1.499578837361,2.992257168094E-03));
#288 = CARTESIAN_POINT('',(-1.583506825139,6.697061631589E-03));
#289 = CARTESIAN_POINT('',(-1.667457652929,2.1800097375E-03));
#290 = CARTESIAN_POINT('',(-1.750656213179,-1.014979157682E-02));
#291 = CARTESIAN_POINT('',(-1.832245248438,-2.888786329223E-02));
#292 = CARTESIAN_POINT('',(-2.020571819762,-8.437389112921E-02));
#293 = CARTESIAN_POINT('',(-2.124914498108,-0.125314964764));
#294 = CARTESIAN_POINT('',(-2.224966061405,-0.170993616379));
#295 = CARTESIAN_POINT('',(-2.321260399157,-0.21779502941));
#296 = CARTESIAN_POINT('',(-2.414257142559,-0.262996828737));
#297 = CARTESIAN_POINT('',(-2.50432327407,-0.304635172012));
#298 = CARTESIAN_POINT('',(-2.674059974344,-0.37597577877));
#299 = CARTESIAN_POINT('',(-2.754389577992,-0.406394855024));
#300 = CARTESIAN_POINT('',(-2.833249830357,-0.431592759616));
#301 = CARTESIAN_POINT('',(-2.911032159021,-0.450894465495));
#302 = CARTESIAN_POINT('',(-2.988103399698,-0.463898400514));
#303 = CARTESIAN_POINT('',(-3.064829612484,-0.470406260387));
#304 = CARTESIAN_POINT('',(-3.245552684753,-0.470406260387));
#305 = CARTESIAN_POINT('',(-3.349340941723,-0.458470379786));
#306 = CARTESIAN_POINT('',(-3.453996460087,-0.434668475546));
#307 = CARTESIAN_POINT('',(-3.56045624404,-0.399647243479));
#308 = CARTESIAN_POINT('',(-3.669679362644,-0.354693538234));
#309 = CARTESIAN_POINT('',(-3.782686602712,-0.302298658546));
#310 = CARTESIAN_POINT('',(-3.975373919724,-0.211754137751));
#311 = CARTESIAN_POINT('',(-4.052514810953,-0.175223172145));
#312 = CARTESIAN_POINT('',(-4.132154290714,-0.138475294337));
#313 = CARTESIAN_POINT('',(-4.214290759189,-0.103153971123));
#314 = CARTESIAN_POINT('',(-4.298990689645,-7.120180048864E-02));
#315 = CARTESIAN_POINT('',(-4.386399021021,-4.468175734262E-02));
#316 = CARTESIAN_POINT('',(-4.558071945612,-8.219130808761E-03));
#317 = CARTESIAN_POINT('',(-4.641171490951,2.992257168097E-03));
#318 = CARTESIAN_POINT('',(-4.725099478729,6.697061631624E-03));
#319 = CARTESIAN_POINT('',(-4.809050306518,2.18000973741E-03));
#320 = CARTESIAN_POINT('',(-4.892248866768,-1.014979157672E-02));
#321 = CARTESIAN_POINT('',(-4.973837902028,-2.888786329227E-02));
#322 = CARTESIAN_POINT('',(-5.148219496442,-8.026532922224E-02));
#323 = CARTESIAN_POINT('',(-5.239925713748,-0.115049679224));
#324 = CARTESIAN_POINT('',(-5.328334799761,-0.153867172831));
#325 = CARTESIAN_POINT('',(-5.413784232378,-0.194261411191));
#326 = CARTESIAN_POINT('',(-5.49655101078,-0.234237507162));
#327 = CARTESIAN_POINT('',(-5.576849534731,-0.272260412347));
#328 = CARTESIAN_POINT('',(-5.750146548467,-0.349936751638));
#329 = CARTESIAN_POINT('',(-5.842546289553,-0.388323594196));
#330 = CARTESIAN_POINT('',(-5.932769131912,-0.420487368028));
#331 = CARTESIAN_POINT('',(-6.021391714533,-0.445270622737));
#332 = CARTESIAN_POINT('',(-6.108971945882,-0.462019789031));
#333 = CARTESIAN_POINT('',(-6.196043025521,-0.470406260387));
#334 = CARTESIAN_POINT('',(-6.28318530718,-0.470406260387));
#335 = ( GEOMETRIC_REPRESENTATION_CONTEXT(2) 
PARAMETRIC_REPRESENTATION_CONTEXT() REPRESENTATION_CONTEXT('2D SPACE',''
  ) );
#336 = ORIENTED_EDGE('',*,*,#337,.F.);
#337 = EDGE_CURVE('',#133,#131,#338,.T.);
#338 = SURFACE_CURVE('',#339,(#378,#451),.PCURVE_S1.);
#339 = B_SPLINE_CURVE_WITH_KNOTS('',7,(#340,#341,#342,#343,#344,#345,
    #346,#347,#348,#349,#350,#351,#352,#353,#354,#355,#356,#357,#358,
    #359,#360,#361,#362,#363,#364,#365,#366,#367,#368,#369,#370,#371,
    #372,#373,#374,#375,#376,#377),.UNSPECIFIED.,.F.,.F.,(8,6,6,6,6,6,8)
  ,(0.749585121734,0.794845993756,0.887205056108,1.,1.134563446456,
    1.219503310428,1.250591438267),.UNSPECIFIED.);
#340 = CARTESIAN_POINT('',(-3.885780586188E-16,38.499999998507,
    5.999999997994));
#341 = CARTESIAN_POINT('',(0.297005025471,38.49999998725,5.999999978926)
  );
#342 = CARTESIAN_POINT('',(0.594029982913,38.497326889334,6.017152295127
    ));
#343 = CARTESIAN_POINT('',(0.888845330855,38.491980087655,6.051461138668
    ));
#344 = CARTESIAN_POINT('',(1.179226231196,38.484078171188,6.10246703722)
  );
#345 = CARTESIAN_POINT('',(1.463013255474,38.473858402521,6.169249480944
    ));
#346 = CARTESIAN_POINT('',(1.738170944246,38.461656258915,6.250426416081
    ));
#347 = CARTESIAN_POINT('',(2.542925591322,38.419734670778,6.535404982941
    ));
#348 = CARTESIAN_POINT('',(3.040294915815,38.384950320776,6.779246260025
    ));
#349 = CARTESIAN_POINT('',(3.492707668953,38.346132827169,7.065222725689
    ));
#350 = CARTESIAN_POINT('',(3.899571138718,38.305738588809,7.384584117517
    ));
#351 = CARTESIAN_POINT('',(4.261298289427,38.265762492838,7.729850628854
    ));
#352 = CARTESIAN_POINT('',(4.578957661567,38.227739587653,8.094584839759
    ));
#353 = CARTESIAN_POINT('',(5.19012623521,38.150063248362,8.935786214882)
  );
#354 = CARTESIAN_POINT('',(5.464582842083,38.111676405804,9.421655644012
    ));
#355 = CARTESIAN_POINT('',(5.680559885171,38.079512631972,9.923393042778
    ));
#356 = CARTESIAN_POINT('',(5.840683804112,38.054729377263,
    10.435725076735));
#357 = CARTESIAN_POINT('',(5.946844280144,38.037980210969,10.95471939606
    ));
#358 = CARTESIAN_POINT('',(6.,38.029593739613,11.47714631005));
#359 = CARTESIAN_POINT('',(6.,38.029593739613,12.623760180061));
#360 = CARTESIAN_POINT('',(5.92434587061,38.041529620835,13.24649114915)
  );
#361 = CARTESIAN_POINT('',(5.773489670779,38.065331522457,
    13.863406433358));
#362 = CARTESIAN_POINT('',(5.545341512132,38.1003527593,14.469311520959)
  );
#363 = CARTESIAN_POINT('',(5.235997792982,38.145306459793,
    15.056954025117));
#364 = CARTESIAN_POINT('',(4.840114533748,38.197701342086,
    15.616021527781));
#365 = CARTESIAN_POINT('',(4.044291363286,38.288245862016,
    16.454644168052));
#366 = CARTESIAN_POINT('',(3.697461356473,38.324776828351,
    16.763590110499));
#367 = CARTESIAN_POINT('',(3.311358672408,38.361524705421,
    17.050345420119));
#368 = CARTESIAN_POINT('',(2.886541925423,38.396846028562,
    17.308053859592));
#369 = CARTESIAN_POINT('',(2.424525329457,38.428798199919,17.52962223276
    ));
#370 = CARTESIAN_POINT('',(1.927913582458,38.455318242525,
    17.707640061501));
#371 = CARTESIAN_POINT('',(1.207700976711,38.481537723825,
    17.880547810163));
#372 = CARTESIAN_POINT('',(1.011206727541,38.487560425813,17.91984633629
    ));
#373 = CARTESIAN_POINT('',(0.811856907664,38.492483066442,
    17.951699670813));
#374 = CARTESIAN_POINT('',(0.610346035581,38.496228153733,
    17.975797177266));
#375 = CARTESIAN_POINT('',(0.407386236266,38.498742658276,
    17.991931929891));
#376 = CARTESIAN_POINT('',(0.203697805893,38.500000006227,
    17.999999988928));
#377 = CARTESIAN_POINT('',(9.159339953158E-16,38.499999998507,
    18.000000002006));
#378 = PCURVE('',#53,#379);
#379 = DEFINITIONAL_REPRESENTATION('',(#380),#450);
#380 = B_SPLINE_CURVE_WITH_KNOTS('',3,(#381,#382,#383,#384,#385,#386,
    #387,#388,#389,#390,#391,#392,#393,#394,#395,#396,#397,#398,#399,
    #400,#401,#402,#403,#404,#405,#406,#407,#408,#409,#410,#411,#412,
    #413,#414,#415,#416,#417,#418,#419,#420,#421,#422,#423,#424,#425,
    #426,#427,#428,#429,#430,#431,#432,#433,#434,#435,#436,#437,#438,
    #439,#440,#441,#442,#443,#444,#445,#446,#447,#448,#449),
  .UNSPECIFIED.,.F.,.F.,(4,1,1,1,1,1,1,1,1,1,1,1,1,1,1,1,1,1,1,1,1,1,1,1
    ,1,1,1,1,1,1,1,1,1,1,1,1,1,1,1,1,1,1,1,1,1,1,1,1,1,1,1,1,1,1,1,1,1,1
    ,1,1,1,1,1,1,1,1,4),(0.749585121734,0.75717612653,0.764767131326,
    0.772358136122,0.779949140918,0.787540145714,0.79513115051,
    0.802722155306,0.810313160101,0.817904164897,0.825495169693,
    0.833086174489,0.840677179285,0.848268184081,0.855859188877,
    0.863450193673,0.871041198469,0.878632203265,0.886223208061,
    0.893814212857,0.901405217653,0.908996222449,0.916587227245,
    0.924178232041,0.931769236837,0.939360241633,0.946951246429,
    0.954542251225,0.96213325602,0.969724260816,0.977315265612,
    0.984906270408,0.992497275204,1.00008828,1.007679284796,
    1.015270289592,1.022861294388,1.030452299184,1.03804330398,
    1.045634308776,1.053225313572,1.060816318368,1.068407323164,
    1.07599832796,1.083589332756,1.091180337552,1.098771342348,
    1.106362347143,1.113953351939,1.121544356735,1.129135361531,
    1.136726366327,1.144317371123,1.151908375919,1.159499380715,
    1.167090385511,1.174681390307,1.182272395103,1.189863399899,
    1.197454404695,1.205045409491,1.212636414287,1.220227419083,
    1.227818423879,1.235409428675,1.243000433471,1.250591438267),
  .QUASI_UNIFORM_KNOTS.);
#381 = CARTESIAN_POINT('',(-1.570796326795,-5.999999997994));
#382 = CARTESIAN_POINT('',(-1.567777320343,-5.999974373553));
#383 = CARTESIAN_POINT('',(-1.561739296482,-6.006775098952));
#384 = CARTESIAN_POINT('',(-1.552738057505,-6.037044608517));
#385 = CARTESIAN_POINT('',(-1.543848768035,-6.087015994466));
#386 = CARTESIAN_POINT('',(-1.535126450249,-6.155899364655));
#387 = CARTESIAN_POINT('',(-1.526624134037,-6.242634303845));
#388 = CARTESIAN_POINT('',(-1.518394941026,-6.345823048545));
#389 = CARTESIAN_POINT('',(-1.510481779541,-6.463843613024));
#390 = CARTESIAN_POINT('',(-1.502885626914,-6.595558980949));
#391 = CARTESIAN_POINT('',(-1.495612268843,-6.739833718484));
#392 = CARTESIAN_POINT('',(-1.48866457948,-6.895605927536));
#393 = CARTESIAN_POINT('',(-1.482044739701,-7.061863698246));
#394 = CARTESIAN_POINT('',(-1.475753779366,-7.237647483714));
#395 = CARTESIAN_POINT('',(-1.46979182138,-7.422045999598));
#396 = CARTESIAN_POINT('',(-1.464158134642,-7.614193754806));
#397 = CARTESIAN_POINT('',(-1.45885119346,-7.813270125635));
#398 = CARTESIAN_POINT('',(-1.45386884948,-8.018492157568));
#399 = CARTESIAN_POINT('',(-1.449207997412,-8.229132385312));
#400 = CARTESIAN_POINT('',(-1.444866106079,-8.444444264413));
#401 = CARTESIAN_POINT('',(-1.440835749879,-8.663933490319));
#402 = CARTESIAN_POINT('',(-1.437104157258,-8.887543093571));
#403 = CARTESIAN_POINT('',(-1.433668888991,-9.114739458673));
#404 = CARTESIAN_POINT('',(-1.430525150196,-9.345152726453));
#405 = CARTESIAN_POINT('',(-1.427669092572,-9.578407983996));
#406 = CARTESIAN_POINT('',(-1.425096954867,-9.814167025708));
#407 = CARTESIAN_POINT('',(-1.422805318079,-10.05211382965));
#408 = CARTESIAN_POINT('',(-1.420791061541,-10.29195524012));
#409 = CARTESIAN_POINT('',(-1.419051398718,-10.53341773108));
#410 = CARTESIAN_POINT('',(-1.417583891196,-10.77624524385));
#411 = CARTESIAN_POINT('',(-1.416386468075,-11.02019723332));
#412 = CARTESIAN_POINT('',(-1.415457443435,-11.26504537497));
#413 = CARTESIAN_POINT('',(-1.414795534057,-11.51057597234));
#414 = CARTESIAN_POINT('',(-1.414399875972,-11.75657143597));
#415 = CARTESIAN_POINT('',(-1.414270043545,-12.00287029381));
#416 = CARTESIAN_POINT('',(-1.414406057772,-12.24913441511));
#417 = CARTESIAN_POINT('',(-1.414807735764,-12.49504869612));
#418 = CARTESIAN_POINT('',(-1.415475410567,-12.74046042548));
#419 = CARTESIAN_POINT('',(-1.416409895692,-12.98516374893));
#420 = CARTESIAN_POINT('',(-1.41761246319,-13.22895463143));
#421 = CARTESIAN_POINT('',(-1.419084818906,-13.47161338646));
#422 = CARTESIAN_POINT('',(-1.420829078929,-13.71290662983));
#423 = CARTESIAN_POINT('',(-1.422847745814,-13.95258401318));
#424 = CARTESIAN_POINT('',(-1.425143684696,-14.19037631245));
#425 = CARTESIAN_POINT('',(-1.427720098667,-14.42599306891));
#426 = CARTESIAN_POINT('',(-1.430580504252,-14.65912027112));
#427 = CARTESIAN_POINT('',(-1.433728702753,-14.88941778018));
#428 = CARTESIAN_POINT('',(-1.437168762044,-15.11651705463));
#429 = CARTESIAN_POINT('',(-1.440904953267,-15.34001710041));
#430 = CARTESIAN_POINT('',(-1.444941848541,-15.55948624236));
#431 = CARTESIAN_POINT('',(-1.449283809371,-15.77444125912));
#432 = CARTESIAN_POINT('',(-1.453936739442,-15.98440997165));
#433 = CARTESIAN_POINT('',(-1.458901375963,-16.18868123613));
#434 = CARTESIAN_POINT('',(-1.464202807066,-16.38740320827));
#435 = CARTESIAN_POINT('',(-1.469843115571,-16.5796293558));
#436 = CARTESIAN_POINT('',(-1.475820504644,-16.76432968458));
#437 = CARTESIAN_POINT('',(-1.482132539932,-16.9404798931));
#438 = CARTESIAN_POINT('',(-1.488775273803,-17.1070368496));
#439 = CARTESIAN_POINT('',(-1.495743438948,-17.26294405765));
#440 = CARTESIAN_POINT('',(-1.503030429133,-17.40712961645));
#441 = CARTESIAN_POINT('',(-1.510628006425,-17.53850298536));
#442 = CARTESIAN_POINT('',(-1.518527257327,-17.65596280842));
#443 = CARTESIAN_POINT('',(-1.526714766253,-17.75836046587));
#444 = CARTESIAN_POINT('',(-1.53518660755,-17.84462842927));
#445 = CARTESIAN_POINT('',(-1.543894717102,-17.91328286076));
#446 = CARTESIAN_POINT('',(-1.552766975633,-17.96307227382));
#447 = CARTESIAN_POINT('',(-1.561753270407,-17.99324553043));
#448 = CARTESIAN_POINT('',(-1.567781842164,-18.00002563388));
#449 = CARTESIAN_POINT('',(-1.570796326795,-18.000000002));
#450 = ( GEOMETRIC_REPRESENTATION_CONTEXT(2) 
PARAMETRIC_REPRESENTATION_CONTEXT() REPRESENTATION_CONTEXT('2D SPACE',''
  ) );
#451 = PCURVE('',#452,#457);
#452 = CYLINDRICAL_SURFACE('',#453,6.);
#453 = AXIS2_PLACEMENT_3D('',#454,#455,#456);
#454 = CARTESIAN_POINT('',(0.,38.5,12.));
#455 = DIRECTION('',(-0.,1.,-0.));
#456 = DIRECTION('',(1.,0.,0.));
#457 = DEFINITIONAL_REPRESENTATION('',(#458),#528);
#458 = B_SPLINE_CURVE_WITH_KNOTS('',3,(#459,#460,#461,#462,#463,#464,
    #465,#466,#467,#468,#469,#470,#471,#472,#473,#474,#475,#476,#477,
    #478,#479,#480,#481,#482,#483,#484,#485,#486,#487,#488,#489,#490,
    #491,#492,#493,#494,#495,#496,#497,#498,#499,#500,#501,#502,#503,
    #504,#505,#506,#507,#508,#509,#510,#511,#512,#513,#514,#515,#516,
    #517,#518,#519,#520,#521,#522,#523,#524,#525,#526,#527),
  .UNSPECIFIED.,.F.,.F.,(4,1,1,1,1,1,1,1,1,1,1,1,1,1,1,1,1,1,1,1,1,1,1,1
    ,1,1,1,1,1,1,1,1,1,1,1,1,1,1,1,1,1,1,1,1,1,1,1,1,1,1,1,1,1,1,1,1,1,1
    ,1,1,1,1,1,1,1,1,4),(0.749585121734,0.75717612653,0.764767131326,
    0.772358136122,0.779949140918,0.787540145714,0.79513115051,
    0.802722155306,0.810313160101,0.817904164897,0.825495169693,
    0.833086174489,0.840677179285,0.848268184081,0.855859188877,
    0.863450193673,0.871041198469,0.878632203265,0.886223208061,
    0.893814212857,0.901405217653,0.908996222449,0.916587227245,
    0.924178232041,0.931769236837,0.939360241633,0.946951246429,
    0.954542251225,0.96213325602,0.969724260816,0.977315265612,
    0.984906270408,0.992497275204,1.00008828,1.007679284796,
    1.015270289592,1.022861294388,1.030452299184,1.03804330398,
    1.045634308776,1.053225313572,1.060816318368,1.068407323164,
    1.07599832796,1.083589332756,1.091180337552,1.098771342348,
    1.106362347143,1.113953351939,1.121544356735,1.129135361531,
    1.136726366327,1.144317371123,1.151908375919,1.159499380715,
    1.167090385511,1.174681390307,1.182272395103,1.189863399899,
    1.197454404695,1.205045409491,1.212636414287,1.220227419083,
    1.227818423879,1.235409428675,1.243000433471,1.250591438267),
  .QUASI_UNIFORM_KNOTS.);
#459 = CARTESIAN_POINT('',(-4.712388980385,-1.492949763815E-09));
#460 = CARTESIAN_POINT('',(-4.731760328145,6.426099401343E-06));
#461 = CARTESIAN_POINT('',(-4.770505245523,-1.057877092097E-03));
#462 = CARTESIAN_POINT('',(-4.828453884555,-5.762052471553E-03));
#463 = CARTESIAN_POINT('',(-4.886060620115,-1.347977526769E-02));
#464 = CARTESIAN_POINT('',(-4.943144459198,-2.401333754194E-02));
#465 = CARTESIAN_POINT('',(-4.999519534962,-3.710467523056E-02));
#466 = CARTESIAN_POINT('',(-5.054973997949,-5.242889520006E-02));
#467 = CARTESIAN_POINT('',(-5.10933179253,-6.962226523783E-02));
#468 = CARTESIAN_POINT('',(-5.16267897997,-8.839039167209E-02));
#469 = CARTESIAN_POINT('',(-5.215055854649,-0.108438702747));
#470 = CARTESIAN_POINT('',(-5.266509330115,-0.129486071541));
#471 = CARTESIAN_POINT('',(-5.317079634416,-0.15126351444));
#472 = CARTESIAN_POINT('',(-5.366804460281,-0.173516417085));
#473 = CARTESIAN_POINT('',(-5.415718357056,-0.196005403373));
#474 = CARTESIAN_POINT('',(-5.463853227568,-0.218507147186));
#475 = CARTESIAN_POINT('',(-5.51123882397,-0.240815026547));
#476 = CARTESIAN_POINT('',(-5.557901913229,-0.26273893565));
#477 = CARTESIAN_POINT('',(-5.603870622309,-0.284107307213));
#478 = CARTESIAN_POINT('',(-5.649159316777,-0.304760033886));
#479 = CARTESIAN_POINT('',(-5.693826132001,-0.32457469524));
#480 = CARTESIAN_POINT('',(-5.73800064515,-0.343473004793));
#481 = CARTESIAN_POINT('',(-5.781703645648,-0.361340220311));
#482 = CARTESIAN_POINT('',(-5.824981676131,-0.37808535025));
#483 = CARTESIAN_POINT('',(-5.867872661267,-0.393624640622));
#484 = CARTESIAN_POINT('',(-5.910415420565,-0.407885071039));
#485 = CARTESIAN_POINT('',(-5.952647380269,-0.420802540604));
#486 = CARTESIAN_POINT('',(-5.994605413198,-0.432321531782));
#487 = CARTESIAN_POINT('',(-6.036325821181,-0.442394437203));
#488 = CARTESIAN_POINT('',(-6.077844515279,-0.450981039618));
#489 = CARTESIAN_POINT('',(-6.119197198186,-0.458048017343));
#490 = CARTESIAN_POINT('',(-6.160419312526,-0.463568513805));
#491 = CARTESIAN_POINT('',(-6.201546928668,-0.467521762529));
#492 = CARTESIAN_POINT('',(-6.242614143069,-0.469892781781));
#493 = CARTESIAN_POINT('',(-6.283663554833,-0.470672108836));
#494 = CARTESIAN_POINT('',(-6.324707985181,-0.469855697919));
#495 = CARTESIAN_POINT('',(-6.365764050756,-0.467448751056));
#496 = CARTESIAN_POINT('',(-6.406875715755,-0.463461447638));
#497 = CARTESIAN_POINT('',(-6.448078918457,-0.457909233578));
#498 = CARTESIAN_POINT('',(-6.489411229363,-0.450813082876));
#499 = CARTESIAN_POINT('',(-6.530909442867,-0.442199855688));
#500 = CARTESIAN_POINT('',(-6.572610403921,-0.432102714614));
#501 = CARTESIAN_POINT('',(-6.614550971099,-0.42056160452));
#502 = CARTESIAN_POINT('',(-6.656768216284,-0.407623789157));
#503 = CARTESIAN_POINT('',(-6.699299565233,-0.393344442478));
#504 = CARTESIAN_POINT('',(-6.742182968711,-0.377787286063));
#505 = CARTESIAN_POINT('',(-6.785457049808,-0.361025285359));
#506 = CARTESIAN_POINT('',(-6.829161366837,-0.34314133876));
#507 = CARTESIAN_POINT('',(-6.873336304359,-0.324229186977));
#508 = CARTESIAN_POINT('',(-6.918024424126,-0.304393675171));
#509 = CARTESIAN_POINT('',(-6.963266464311,-0.28375358671));
#510 = CARTESIAN_POINT('',(-7.009117438062,-0.262435016956));
#511 = CARTESIAN_POINT('',(-7.055587884285,-0.240600170798));
#512 = CARTESIAN_POINT('',(-7.10290723053,-0.218324005752));
#513 = CARTESIAN_POINT('',(-7.151082429214,-0.195805460726));
#514 = CARTESIAN_POINT('',(-7.200104673902,-0.173271246857));
#515 = CARTESIAN_POINT('',(-7.24997439337,-0.150962195037));
#516 = CARTESIAN_POINT('',(-7.300694641534,-0.129134743134));
#517 = CARTESIAN_POINT('',(-7.352272823674,-0.108058037433));
#518 = CARTESIAN_POINT('',(-7.404720782234,-8.801172712799E-02));
#519 = CARTESIAN_POINT('',(-7.458053275093,-6.928366203637E-02));
#520 = CARTESIAN_POINT('',(-7.512294778636,-5.216557400783E-02));
#521 = CARTESIAN_POINT('',(-7.567454960845,-3.695520996194E-02));
#522 = CARTESIAN_POINT('',(-7.623621637624,-2.393296435292E-02));
#523 = CARTESIAN_POINT('',(-7.680608754662,-1.34338072739E-02));
#524 = CARTESIAN_POINT('',(-7.738103164724,-5.743894813156E-03));
#525 = CARTESIAN_POINT('',(-7.795955034036,-1.054620937476E-03));
#526 = CARTESIAN_POINT('',(-7.834639312961,6.427188283611E-06));
#527 = CARTESIAN_POINT('',(-7.853981633974,-1.492949763815E-09));
#528 = ( GEOMETRIC_REPRESENTATION_CONTEXT(2) 
PARAMETRIC_REPRESENTATION_CONTEXT() REPRESENTATION_CONTEXT('2D SPACE',''
  ) );
#529 = ADVANCED_FACE('',(#530),#452,.T.);
#530 = FACE_BOUND('',#531,.F.);
#531 = EDGE_LOOP('',(#532,#559));
#532 = ORIENTED_EDGE('',*,*,#533,.F.);
#533 = EDGE_CURVE('',#133,#131,#534,.T.);
#534 = SURFACE_CURVE('',#535,(#540,#547),.PCURVE_S1.);
#535 = CIRCLE('',#536,6.);
#536 = AXIS2_PLACEMENT_3D('',#537,#538,#539);
#537 = CARTESIAN_POINT('',(0.,38.5,12.));
#538 = DIRECTION('',(0.,-1.,-0.));
#539 = DIRECTION('',(-1.836970198721E-16,0.,-1.));
#540 = PCURVE('',#452,#541);
#541 = DEFINITIONAL_REPRESENTATION('',(#542),#546);
#542 = LINE('',#543,#544);
#543 = CARTESIAN_POINT('',(-4.712388980385,0.));
#544 = VECTOR('',#545,1.);
#545 = DIRECTION('',(-1.,0.));
#546 = ( GEOMETRIC_REPRESENTATION_CONTEXT(2) 
PARAMETRIC_REPRESENTATION_CONTEXT() REPRESENTATION_CONTEXT('2D SPACE',''
  ) );
#547 = PCURVE('',#548,#553);
#548 = PLANE('',#549);
#549 = AXIS2_PLACEMENT_3D('',#550,#551,#552);
#550 = CARTESIAN_POINT('',(-4.558133775131E-16,38.5,12.));
#551 = DIRECTION('',(-0.,-1.,-0.));
#552 = DIRECTION('',(0.,0.,-1.));
#553 = DEFINITIONAL_REPRESENTATION('',(#554),#558);
#554 = CIRCLE('',#555,6.);
#555 = AXIS2_PLACEMENT_2D('',#556,#557);
#556 = CARTESIAN_POINT('',(0.,4.558133775131E-16));
#557 = DIRECTION('',(1.,-1.836970198721E-16));
#558 = ( GEOMETRIC_REPRESENTATION_CONTEXT(2) 
PARAMETRIC_REPRESENTATION_CONTEXT() REPRESENTATION_CONTEXT('2D SPACE',''
  ) );
#559 = ORIENTED_EDGE('',*,*,#337,.T.);
#560 = ADVANCED_FACE('',(#561),#548,.F.);
#561 = FACE_BOUND('',#562,.F.);
#562 = EDGE_LOOP('',(#563,#564));
#563 = ORIENTED_EDGE('',*,*,#533,.T.);
#564 = ORIENTED_EDGE('',*,*,#565,.T.);
#565 = EDGE_CURVE('',#131,#133,#566,.T.);
#566 = SURFACE_CURVE('',#567,(#572,#579),.PCURVE_S1.);
#567 = CIRCLE('',#568,6.);
#568 = AXIS2_PLACEMENT_3D('',#569,#570,#571);
#569 = CARTESIAN_POINT('',(0.,38.5,12.));
#570 = DIRECTION('',(0.,-1.,0.));
#571 = DIRECTION('',(1.,0.,0.));
#572 = PCURVE('',#548,#573);
#573 = DEFINITIONAL_REPRESENTATION('',(#574),#578);
#574 = CIRCLE('',#575,6.);
#575 = AXIS2_PLACEMENT_2D('',#576,#577);
#576 = CARTESIAN_POINT('',(0.,4.558133775131E-16));
#577 = DIRECTION('',(0.,1.));
#578 = ( GEOMETRIC_REPRESENTATION_CONTEXT(2) 
PARAMETRIC_REPRESENTATION_CONTEXT() REPRESENTATION_CONTEXT('2D SPACE',''
  ) );
#579 = PCURVE('',#266,#580);
#580 = DEFINITIONAL_REPRESENTATION('',(#581),#585);
#581 = LINE('',#582,#583);
#582 = CARTESIAN_POINT('',(-0.,0.));
#583 = VECTOR('',#584,1.);
#584 = DIRECTION('',(-1.,0.));
#585 = ( GEOMETRIC_REPRESENTATION_CONTEXT(2) 
PARAMETRIC_REPRESENTATION_CONTEXT() REPRESENTATION_CONTEXT('2D SPACE',''
  ) );
#586 = ADVANCED_FACE('',(#587),#266,.T.);
#587 = FACE_BOUND('',#588,.F.);
#588 = EDGE_LOOP('',(#589,#590));
#589 = ORIENTED_EDGE('',*,*,#565,.F.);
#590 = ORIENTED_EDGE('',*,*,#130,.T.);
#591 = ADVANCED_FACE('',(#592,#595,#630,#665,#700),#115,.T.);
#592 = FACE_BOUND('',#593,.T.);
#593 = EDGE_LOOP('',(#594));
#594 = ORIENTED_EDGE('',*,*,#100,.T.);
#595 = FACE_BOUND('',#596,.T.);
#596 = EDGE_LOOP('',(#597));
#597 = ORIENTED_EDGE('',*,*,#598,.T.);
#598 = EDGE_CURVE('',#599,#599,#601,.T.);
#599 = VERTEX_POINT('',#600);
#600 = CARTESIAN_POINT('',(-17.325,-30.00778024113,24.));
#601 = SURFACE_CURVE('',#602,(#607,#618),.PCURVE_S1.);
#602 = CIRCLE('',#603,2.15);
#603 = AXIS2_PLACEMENT_3D('',#604,#605,#606);
#604 = CARTESIAN_POINT('',(-16.25,-28.14582562299,24.));
#605 = DIRECTION('',(-0.,0.,-1.));
#606 = DIRECTION('',(-0.5,-0.866025403784,0.));
#607 = PCURVE('',#115,#608);
#608 = DEFINITIONAL_REPRESENTATION('',(#609),#617);
#609 = ( BOUNDED_CURVE() B_SPLINE_CURVE(2,(#610,#611,#612,#613,#614,#615
,#616),.UNSPECIFIED.,.T.,.F.) B_SPLINE_CURVE_WITH_KNOTS((1,2,2,2,2,1),(
    -2.094395102393,0.,2.094395102393,4.188790204786,6.28318530718,
8.377580409573),.UNSPECIFIED.) CURVE() GEOMETRIC_REPRESENTATION_ITEM() 
RATIONAL_B_SPLINE_CURVE((1.,0.5,1.,0.5,1.,0.5,1.)) REPRESENTATION_ITEM(
  '') );
#610 = CARTESIAN_POINT('',(-17.325,-30.00778024113));
#611 = CARTESIAN_POINT('',(-20.55,-28.14582562299));
#612 = CARTESIAN_POINT('',(-17.325,-26.28387100485));
#613 = CARTESIAN_POINT('',(-14.1,-24.42191638672));
#614 = CARTESIAN_POINT('',(-14.1,-28.14582562299));
#615 = CARTESIAN_POINT('',(-14.1,-31.86973485926));
#616 = CARTESIAN_POINT('',(-17.325,-30.00778024113));
#617 = ( GEOMETRIC_REPRESENTATION_CONTEXT(2) 
PARAMETRIC_REPRESENTATION_CONTEXT() REPRESENTATION_CONTEXT('2D SPACE',''
  ) );
#618 = PCURVE('',#619,#624);
#619 = CYLINDRICAL_SURFACE('',#620,2.15);
#620 = AXIS2_PLACEMENT_3D('',#621,#622,#623);
#621 = CARTESIAN_POINT('',(-16.25,-28.14582562299,-53.0000002));
#622 = DIRECTION('',(-0.,-0.,-1.));
#623 = DIRECTION('',(-0.5,-0.866025403784,0.));
#624 = DEFINITIONAL_REPRESENTATION('',(#625),#629);
#625 = LINE('',#626,#627);
#626 = CARTESIAN_POINT('',(-6.28318530718,-77.0000002));
#627 = VECTOR('',#628,1.);
#628 = DIRECTION('',(1.,-0.));
#629 = ( GEOMETRIC_REPRESENTATION_CONTEXT(2) 
PARAMETRIC_REPRESENTATION_CONTEXT() REPRESENTATION_CONTEXT('2D SPACE',''
  ) );
#630 = FACE_BOUND('',#631,.T.);
#631 = EDGE_LOOP('',(#632));
#632 = ORIENTED_EDGE('',*,*,#633,.T.);
#633 = EDGE_CURVE('',#634,#634,#636,.T.);
#634 = VERTEX_POINT('',#635);
#635 = CARTESIAN_POINT('',(11.,0.,24.));
#636 = SURFACE_CURVE('',#637,(#642,#653),.PCURVE_S1.);
#637 = CIRCLE('',#638,11.);
#638 = AXIS2_PLACEMENT_3D('',#639,#640,#641);
#639 = CARTESIAN_POINT('',(0.,0.,24.));
#640 = DIRECTION('',(0.,0.,-1.));
#641 = DIRECTION('',(1.,0.,0.));
#642 = PCURVE('',#115,#643);
#643 = DEFINITIONAL_REPRESENTATION('',(#644),#652);
#644 = ( BOUNDED_CURVE() B_SPLINE_CURVE(2,(#645,#646,#647,#648,#649,#650
,#651),.UNSPECIFIED.,.T.,.F.) B_SPLINE_CURVE_WITH_KNOTS((1,2,2,2,2,1),(
    -2.094395102393,0.,2.094395102393,4.188790204786,6.28318530718,
8.377580409573),.UNSPECIFIED.) CURVE() GEOMETRIC_REPRESENTATION_ITEM() 
RATIONAL_B_SPLINE_CURVE((1.,0.5,1.,0.5,1.,0.5,1.)) REPRESENTATION_ITEM(
  '') );
#645 = CARTESIAN_POINT('',(11.,-7.015171744065E-16));
#646 = CARTESIAN_POINT('',(11.,-19.05255888325));
#647 = CARTESIAN_POINT('',(-5.5,-9.526279441629));
#648 = CARTESIAN_POINT('',(-22.,-3.395740132531E-15));
#649 = CARTESIAN_POINT('',(-5.5,9.526279441629));
#650 = CARTESIAN_POINT('',(11.,19.052558883258));
#651 = CARTESIAN_POINT('',(11.,-7.015171744065E-16));
#652 = ( GEOMETRIC_REPRESENTATION_CONTEXT(2) 
PARAMETRIC_REPRESENTATION_CONTEXT() REPRESENTATION_CONTEXT('2D SPACE',''
  ) );
#653 = PCURVE('',#654,#659);
#654 = CYLINDRICAL_SURFACE('',#655,11.);
#655 = AXIS2_PLACEMENT_3D('',#656,#657,#658);
#656 = CARTESIAN_POINT('',(0.,0.,-53.0000002));
#657 = DIRECTION('',(-0.,-0.,-1.));
#658 = DIRECTION('',(1.,0.,0.));
#659 = DEFINITIONAL_REPRESENTATION('',(#660),#664);
#660 = LINE('',#661,#662);
#661 = CARTESIAN_POINT('',(-6.28318530718,-77.0000002));
#662 = VECTOR('',#663,1.);
#663 = DIRECTION('',(1.,-0.));
#664 = ( GEOMETRIC_REPRESENTATION_CONTEXT(2) 
PARAMETRIC_REPRESENTATION_CONTEXT() REPRESENTATION_CONTEXT('2D SPACE',''
  ) );
#665 = FACE_BOUND('',#666,.T.);
#666 = EDGE_LOOP('',(#667));
#667 = ORIENTED_EDGE('',*,*,#668,.T.);
#668 = EDGE_CURVE('',#669,#669,#671,.T.);
#669 = VERTEX_POINT('',#670);
#670 = CARTESIAN_POINT('',(34.65,0.,24.));
#671 = SURFACE_CURVE('',#672,(#677,#688),.PCURVE_S1.);
#672 = CIRCLE('',#673,2.15);
#673 = AXIS2_PLACEMENT_3D('',#674,#675,#676);
#674 = CARTESIAN_POINT('',(32.5,0.,24.));
#675 = DIRECTION('',(0.,0.,-1.));
#676 = DIRECTION('',(1.,0.,0.));
#677 = PCURVE('',#115,#678);
#678 = DEFINITIONAL_REPRESENTATION('',(#679),#687);
#679 = ( BOUNDED_CURVE() B_SPLINE_CURVE(2,(#680,#681,#682,#683,#684,#685
,#686),.UNSPECIFIED.,.T.,.F.) B_SPLINE_CURVE_WITH_KNOTS((1,2,2,2,2,1),(
    -2.094395102393,0.,2.094395102393,4.188790204786,6.28318530718,
8.377580409573),.UNSPECIFIED.) CURVE() GEOMETRIC_REPRESENTATION_ITEM() 
RATIONAL_B_SPLINE_CURVE((1.,0.5,1.,0.5,1.,0.5,1.)) REPRESENTATION_ITEM(
  '') );
#680 = CARTESIAN_POINT('',(34.65,-7.015171744065E-16));
#681 = CARTESIAN_POINT('',(34.65,-3.723909236273));
#682 = CARTESIAN_POINT('',(31.425,-1.861954618137));
#683 = CARTESIAN_POINT('',(28.2,-1.22811529804E-15));
#684 = CARTESIAN_POINT('',(31.425,1.861954618137));
#685 = CARTESIAN_POINT('',(34.65,3.723909236273));
#686 = CARTESIAN_POINT('',(34.65,-7.015171744065E-16));
#687 = ( GEOMETRIC_REPRESENTATION_CONTEXT(2) 
PARAMETRIC_REPRESENTATION_CONTEXT() REPRESENTATION_CONTEXT('2D SPACE',''
  ) );
#688 = PCURVE('',#689,#694);
#689 = CYLINDRICAL_SURFACE('',#690,2.15);
#690 = AXIS2_PLACEMENT_3D('',#691,#692,#693);
#691 = CARTESIAN_POINT('',(32.5,0.,-53.0000002));
#692 = DIRECTION('',(-0.,-0.,-1.));
#693 = DIRECTION('',(1.,0.,0.));
#694 = DEFINITIONAL_REPRESENTATION('',(#695),#699);
#695 = LINE('',#696,#697);
#696 = CARTESIAN_POINT('',(-6.28318530718,-77.0000002));
#697 = VECTOR('',#698,1.);
#698 = DIRECTION('',(1.,-0.));
#699 = ( GEOMETRIC_REPRESENTATION_CONTEXT(2) 
PARAMETRIC_REPRESENTATION_CONTEXT() REPRESENTATION_CONTEXT('2D SPACE',''
  ) );
#700 = FACE_BOUND('',#701,.T.);
#701 = EDGE_LOOP('',(#702));
#702 = ORIENTED_EDGE('',*,*,#703,.T.);
#703 = EDGE_CURVE('',#704,#704,#706,.T.);
#704 = VERTEX_POINT('',#705);
#705 = CARTESIAN_POINT('',(-17.325,30.007780241131,24.));
#706 = SURFACE_CURVE('',#707,(#712,#723),.PCURVE_S1.);
#707 = CIRCLE('',#708,2.15);
#708 = AXIS2_PLACEMENT_3D('',#709,#710,#711);
#709 = CARTESIAN_POINT('',(-16.25,28.145825622994,24.));
#710 = DIRECTION('',(-0.,0.,-1.));
#711 = DIRECTION('',(-0.5,0.866025403784,0.));
#712 = PCURVE('',#115,#713);
#713 = DEFINITIONAL_REPRESENTATION('',(#714),#722);
#714 = ( BOUNDED_CURVE() B_SPLINE_CURVE(2,(#715,#716,#717,#718,#719,#720
,#721),.UNSPECIFIED.,.T.,.F.) B_SPLINE_CURVE_WITH_KNOTS((1,2,2,2,2,1),(
    -2.094395102393,0.,2.094395102393,4.188790204786,6.28318530718,
8.377580409573),.UNSPECIFIED.) CURVE() GEOMETRIC_REPRESENTATION_ITEM() 
RATIONAL_B_SPLINE_CURVE((1.,0.5,1.,0.5,1.,0.5,1.)) REPRESENTATION_ITEM(
  '') );
#715 = CARTESIAN_POINT('',(-17.325,30.007780241131));
#716 = CARTESIAN_POINT('',(-14.1,31.869734859267));
#717 = CARTESIAN_POINT('',(-14.1,28.145825622994));
#718 = CARTESIAN_POINT('',(-14.1,24.421916386721));
#719 = CARTESIAN_POINT('',(-17.325,26.283871004858));
#720 = CARTESIAN_POINT('',(-20.55,28.145825622994));
#721 = CARTESIAN_POINT('',(-17.325,30.007780241131));
#722 = ( GEOMETRIC_REPRESENTATION_CONTEXT(2) 
PARAMETRIC_REPRESENTATION_CONTEXT() REPRESENTATION_CONTEXT('2D SPACE',''
  ) );
#723 = PCURVE('',#724,#729);
#724 = CYLINDRICAL_SURFACE('',#725,2.15);
#725 = AXIS2_PLACEMENT_3D('',#726,#727,#728);
#726 = CARTESIAN_POINT('',(-16.25,28.145825622994,-53.0000002));
#727 = DIRECTION('',(-0.,-0.,-1.));
#728 = DIRECTION('',(-0.5,0.866025403784,0.));
#729 = DEFINITIONAL_REPRESENTATION('',(#730),#734);
#730 = LINE('',#731,#732);
#731 = CARTESIAN_POINT('',(-6.28318530718,-77.0000002));
#732 = VECTOR('',#733,1.);
#733 = DIRECTION('',(1.,-0.));
#734 = ( GEOMETRIC_REPRESENTATION_CONTEXT(2) 
PARAMETRIC_REPRESENTATION_CONTEXT() REPRESENTATION_CONTEXT('2D SPACE',''
  ) );
#735 = ADVANCED_FACE('',(#736),#724,.F.);
#736 = FACE_BOUND('',#737,.T.);
#737 = EDGE_LOOP('',(#738,#762,#783,#784));
#738 = ORIENTED_EDGE('',*,*,#739,.F.);
#739 = EDGE_CURVE('',#740,#740,#742,.T.);
#740 = VERTEX_POINT('',#741);
#741 = CARTESIAN_POINT('',(-17.325,30.007780241131,0.));
#742 = SURFACE_CURVE('',#743,(#748,#755),.PCURVE_S1.);
#743 = CIRCLE('',#744,2.15);
#744 = AXIS2_PLACEMENT_3D('',#745,#746,#747);
#745 = CARTESIAN_POINT('',(-16.25,28.145825622994,0.));
#746 = DIRECTION('',(0.,0.,1.));
#747 = DIRECTION('',(-0.5,0.866025403784,0.));
#748 = PCURVE('',#724,#749);
#749 = DEFINITIONAL_REPRESENTATION('',(#750),#754);
#750 = LINE('',#751,#752);
#751 = CARTESIAN_POINT('',(-0.,-53.0000002));
#752 = VECTOR('',#753,1.);
#753 = DIRECTION('',(-1.,-0.));
#754 = ( GEOMETRIC_REPRESENTATION_CONTEXT(2) 
PARAMETRIC_REPRESENTATION_CONTEXT() REPRESENTATION_CONTEXT('2D SPACE',''
  ) );
#755 = PCURVE('',#65,#756);
#756 = DEFINITIONAL_REPRESENTATION('',(#757),#761);
#757 = CIRCLE('',#758,2.15);
#758 = AXIS2_PLACEMENT_2D('',#759,#760);
#759 = CARTESIAN_POINT('',(-16.25,28.145825622994));
#760 = DIRECTION('',(-0.5,0.866025403784));
#761 = ( GEOMETRIC_REPRESENTATION_CONTEXT(2) 
PARAMETRIC_REPRESENTATION_CONTEXT() REPRESENTATION_CONTEXT('2D SPACE',''
  ) );
#762 = ORIENTED_EDGE('',*,*,#763,.T.);
#763 = EDGE_CURVE('',#740,#704,#764,.T.);
#764 = SEAM_CURVE('',#765,(#769,#776),.PCURVE_S1.);
#765 = LINE('',#766,#767);
#766 = CARTESIAN_POINT('',(-17.325,30.007780241131,-53.0000002));
#767 = VECTOR('',#768,1.);
#768 = DIRECTION('',(0.,0.,1.));
#769 = PCURVE('',#724,#770);
#770 = DEFINITIONAL_REPRESENTATION('',(#771),#775);
#771 = LINE('',#772,#773);
#772 = CARTESIAN_POINT('',(-0.,0.));
#773 = VECTOR('',#774,1.);
#774 = DIRECTION('',(-0.,-1.));
#775 = ( GEOMETRIC_REPRESENTATION_CONTEXT(2) 
PARAMETRIC_REPRESENTATION_CONTEXT() REPRESENTATION_CONTEXT('2D SPACE',''
  ) );
#776 = PCURVE('',#724,#777);
#777 = DEFINITIONAL_REPRESENTATION('',(#778),#782);
#778 = LINE('',#779,#780);
#779 = CARTESIAN_POINT('',(-6.28318530718,0.));
#780 = VECTOR('',#781,1.);
#781 = DIRECTION('',(-0.,-1.));
#782 = ( GEOMETRIC_REPRESENTATION_CONTEXT(2) 
PARAMETRIC_REPRESENTATION_CONTEXT() REPRESENTATION_CONTEXT('2D SPACE',''
  ) );
#783 = ORIENTED_EDGE('',*,*,#703,.F.);
#784 = ORIENTED_EDGE('',*,*,#763,.F.);
#785 = ADVANCED_FACE('',(#786),#689,.F.);
#786 = FACE_BOUND('',#787,.T.);
#787 = EDGE_LOOP('',(#788,#812,#833,#834));
#788 = ORIENTED_EDGE('',*,*,#789,.F.);
#789 = EDGE_CURVE('',#790,#790,#792,.T.);
#790 = VERTEX_POINT('',#791);
#791 = CARTESIAN_POINT('',(34.65,0.,0.));
#792 = SURFACE_CURVE('',#793,(#798,#805),.PCURVE_S1.);
#793 = CIRCLE('',#794,2.15);
#794 = AXIS2_PLACEMENT_3D('',#795,#796,#797);
#795 = CARTESIAN_POINT('',(32.5,4.773959005888E-15,0.));
#796 = DIRECTION('',(0.,0.,1.));
#797 = DIRECTION('',(1.,-1.975516689421E-15,0.));
#798 = PCURVE('',#689,#799);
#799 = DEFINITIONAL_REPRESENTATION('',(#800),#804);
#800 = LINE('',#801,#802);
#801 = CARTESIAN_POINT('',(-0.,-53.0000002));
#802 = VECTOR('',#803,1.);
#803 = DIRECTION('',(-1.,-0.));
#804 = ( GEOMETRIC_REPRESENTATION_CONTEXT(2) 
PARAMETRIC_REPRESENTATION_CONTEXT() REPRESENTATION_CONTEXT('2D SPACE',''
  ) );
#805 = PCURVE('',#65,#806);
#806 = DEFINITIONAL_REPRESENTATION('',(#807),#811);
#807 = CIRCLE('',#808,2.15);
#808 = AXIS2_PLACEMENT_2D('',#809,#810);
#809 = CARTESIAN_POINT('',(32.5,4.072441831482E-15));
#810 = DIRECTION('',(1.,-1.975516689421E-15));
#811 = ( GEOMETRIC_REPRESENTATION_CONTEXT(2) 
PARAMETRIC_REPRESENTATION_CONTEXT() REPRESENTATION_CONTEXT('2D SPACE',''
  ) );
#812 = ORIENTED_EDGE('',*,*,#813,.T.);
#813 = EDGE_CURVE('',#790,#669,#814,.T.);
#814 = SEAM_CURVE('',#815,(#819,#826),.PCURVE_S1.);
#815 = LINE('',#816,#817);
#816 = CARTESIAN_POINT('',(34.65,0.,-53.0000002));
#817 = VECTOR('',#818,1.);
#818 = DIRECTION('',(0.,0.,1.));
#819 = PCURVE('',#689,#820);
#820 = DEFINITIONAL_REPRESENTATION('',(#821),#825);
#821 = LINE('',#822,#823);
#822 = CARTESIAN_POINT('',(-0.,0.));
#823 = VECTOR('',#824,1.);
#824 = DIRECTION('',(-0.,-1.));
#825 = ( GEOMETRIC_REPRESENTATION_CONTEXT(2) 
PARAMETRIC_REPRESENTATION_CONTEXT() REPRESENTATION_CONTEXT('2D SPACE',''
  ) );
#826 = PCURVE('',#689,#827);
#827 = DEFINITIONAL_REPRESENTATION('',(#828),#832);
#828 = LINE('',#829,#830);
#829 = CARTESIAN_POINT('',(-6.28318530718,0.));
#830 = VECTOR('',#831,1.);
#831 = DIRECTION('',(-0.,-1.));
#832 = ( GEOMETRIC_REPRESENTATION_CONTEXT(2) 
PARAMETRIC_REPRESENTATION_CONTEXT() REPRESENTATION_CONTEXT('2D SPACE',''
  ) );
#833 = ORIENTED_EDGE('',*,*,#668,.F.);
#834 = ORIENTED_EDGE('',*,*,#813,.F.);
#835 = ADVANCED_FACE('',(#836),#654,.F.);
#836 = FACE_BOUND('',#837,.T.);
#837 = EDGE_LOOP('',(#838,#862,#883,#884));
#838 = ORIENTED_EDGE('',*,*,#839,.F.);
#839 = EDGE_CURVE('',#840,#840,#842,.T.);
#840 = VERTEX_POINT('',#841);
#841 = CARTESIAN_POINT('',(11.,0.,0.));
#842 = SURFACE_CURVE('',#843,(#848,#855),.PCURVE_S1.);
#843 = CIRCLE('',#844,11.);
#844 = AXIS2_PLACEMENT_3D('',#845,#846,#847);
#845 = CARTESIAN_POINT('',(1.451260974697E-15,8.881784197001E-16,0.));
#846 = DIRECTION('',(0.,0.,1.));
#847 = DIRECTION('',(1.,1.641858671295E-16,-0.));
#848 = PCURVE('',#654,#849);
#849 = DEFINITIONAL_REPRESENTATION('',(#850),#854);
#850 = LINE('',#851,#852);
#851 = CARTESIAN_POINT('',(-0.,-53.0000002));
#852 = VECTOR('',#853,1.);
#853 = DIRECTION('',(-1.,-0.));
#854 = ( GEOMETRIC_REPRESENTATION_CONTEXT(2) 
PARAMETRIC_REPRESENTATION_CONTEXT() REPRESENTATION_CONTEXT('2D SPACE',''
  ) );
#855 = PCURVE('',#65,#856);
#856 = DEFINITIONAL_REPRESENTATION('',(#857),#861);
#857 = CIRCLE('',#858,11.);
#858 = AXIS2_PLACEMENT_2D('',#859,#860);
#859 = CARTESIAN_POINT('',(3.724408208009E-15,1.866612452936E-16));
#860 = DIRECTION('',(1.,1.641858671295E-16));
#861 = ( GEOMETRIC_REPRESENTATION_CONTEXT(2) 
PARAMETRIC_REPRESENTATION_CONTEXT() REPRESENTATION_CONTEXT('2D SPACE',''
  ) );
#862 = ORIENTED_EDGE('',*,*,#863,.T.);
#863 = EDGE_CURVE('',#840,#634,#864,.T.);
#864 = SEAM_CURVE('',#865,(#869,#876),.PCURVE_S1.);
#865 = LINE('',#866,#867);
#866 = CARTESIAN_POINT('',(11.,0.,-53.0000002));
#867 = VECTOR('',#868,1.);
#868 = DIRECTION('',(0.,0.,1.));
#869 = PCURVE('',#654,#870);
#870 = DEFINITIONAL_REPRESENTATION('',(#871),#875);
#871 = LINE('',#872,#873);
#872 = CARTESIAN_POINT('',(-0.,0.));
#873 = VECTOR('',#874,1.);
#874 = DIRECTION('',(-0.,-1.));
#875 = ( GEOMETRIC_REPRESENTATION_CONTEXT(2) 
PARAMETRIC_REPRESENTATION_CONTEXT() REPRESENTATION_CONTEXT('2D SPACE',''
  ) );
#876 = PCURVE('',#654,#877);
#877 = DEFINITIONAL_REPRESENTATION('',(#878),#882);
#878 = LINE('',#879,#880);
#879 = CARTESIAN_POINT('',(-6.28318530718,0.));
#880 = VECTOR('',#881,1.);
#881 = DIRECTION('',(-0.,-1.));
#882 = ( GEOMETRIC_REPRESENTATION_CONTEXT(2) 
PARAMETRIC_REPRESENTATION_CONTEXT() REPRESENTATION_CONTEXT('2D SPACE',''
  ) );
#883 = ORIENTED_EDGE('',*,*,#633,.F.);
#884 = ORIENTED_EDGE('',*,*,#863,.F.);
#885 = ADVANCED_FACE('',(#886),#619,.F.);
#886 = FACE_BOUND('',#887,.T.);
#887 = EDGE_LOOP('',(#888,#912,#933,#934));
#888 = ORIENTED_EDGE('',*,*,#889,.F.);
#889 = EDGE_CURVE('',#890,#890,#892,.T.);
#890 = VERTEX_POINT('',#891);
#891 = CARTESIAN_POINT('',(-17.325,-30.00778024113,0.));
#892 = SURFACE_CURVE('',#893,(#898,#905),.PCURVE_S1.);
#893 = CIRCLE('',#894,2.15);
#894 = AXIS2_PLACEMENT_3D('',#895,#896,#897);
#895 = CARTESIAN_POINT('',(-16.25,-28.14582562299,0.));
#896 = DIRECTION('',(0.,0.,1.));
#897 = DIRECTION('',(-0.5,-0.866025403784,0.));
#898 = PCURVE('',#619,#899);
#899 = DEFINITIONAL_REPRESENTATION('',(#900),#904);
#900 = LINE('',#901,#902);
#901 = CARTESIAN_POINT('',(-8.881784197001E-16,-53.0000002));
#902 = VECTOR('',#903,1.);
#903 = DIRECTION('',(-1.,-0.));
#904 = ( GEOMETRIC_REPRESENTATION_CONTEXT(2) 
PARAMETRIC_REPRESENTATION_CONTEXT() REPRESENTATION_CONTEXT('2D SPACE',''
  ) );
#905 = PCURVE('',#65,#906);
#906 = DEFINITIONAL_REPRESENTATION('',(#907),#911);
#907 = CIRCLE('',#908,2.15);
#908 = AXIS2_PLACEMENT_2D('',#909,#910);
#909 = CARTESIAN_POINT('',(-16.25,-28.14582562299));
#910 = DIRECTION('',(-0.5,-0.866025403784));
#911 = ( GEOMETRIC_REPRESENTATION_CONTEXT(2) 
PARAMETRIC_REPRESENTATION_CONTEXT() REPRESENTATION_CONTEXT('2D SPACE',''
  ) );
#912 = ORIENTED_EDGE('',*,*,#913,.T.);
#913 = EDGE_CURVE('',#890,#599,#914,.T.);
#914 = SEAM_CURVE('',#915,(#919,#926),.PCURVE_S1.);
#915 = LINE('',#916,#917);
#916 = CARTESIAN_POINT('',(-17.325,-30.00778024113,-53.0000002));
#917 = VECTOR('',#918,1.);
#918 = DIRECTION('',(0.,0.,1.));
#919 = PCURVE('',#619,#920);
#920 = DEFINITIONAL_REPRESENTATION('',(#921),#925);
#921 = LINE('',#922,#923);
#922 = CARTESIAN_POINT('',(-0.,0.));
#923 = VECTOR('',#924,1.);
#924 = DIRECTION('',(-0.,-1.));
#925 = ( GEOMETRIC_REPRESENTATION_CONTEXT(2) 
PARAMETRIC_REPRESENTATION_CONTEXT() REPRESENTATION_CONTEXT('2D SPACE',''
  ) );
#926 = PCURVE('',#619,#927);
#927 = DEFINITIONAL_REPRESENTATION('',(#928),#932);
#928 = LINE('',#929,#930);
#929 = CARTESIAN_POINT('',(-6.28318530718,0.));
#930 = VECTOR('',#931,1.);
#931 = DIRECTION('',(-0.,-1.));
#932 = ( GEOMETRIC_REPRESENTATION_CONTEXT(2) 
PARAMETRIC_REPRESENTATION_CONTEXT() REPRESENTATION_CONTEXT('2D SPACE',''
  ) );
#933 = ORIENTED_EDGE('',*,*,#598,.F.);
#934 = ORIENTED_EDGE('',*,*,#913,.F.);
#935 = ADVANCED_FACE('',(#936,#939,#942,#945,#948),#65,.F.);
#936 = FACE_BOUND('',#937,.F.);
#937 = EDGE_LOOP('',(#938));
#938 = ORIENTED_EDGE('',*,*,#43,.T.);
#939 = FACE_BOUND('',#940,.F.);
#940 = EDGE_LOOP('',(#941));
#941 = ORIENTED_EDGE('',*,*,#889,.F.);
#942 = FACE_BOUND('',#943,.F.);
#943 = EDGE_LOOP('',(#944));
#944 = ORIENTED_EDGE('',*,*,#839,.F.);
#945 = FACE_BOUND('',#946,.F.);
#946 = EDGE_LOOP('',(#947));
#947 = ORIENTED_EDGE('',*,*,#789,.F.);
#948 = FACE_BOUND('',#949,.F.);
#949 = EDGE_LOOP('',(#950));
#950 = ORIENTED_EDGE('',*,*,#739,.F.);
#951 = ( GEOMETRIC_REPRESENTATION_CONTEXT(3) 
GLOBAL_UNCERTAINTY_ASSIGNED_CONTEXT((#955)) GLOBAL_UNIT_ASSIGNED_CONTEXT
((#952,#953,#954)) REPRESENTATION_CONTEXT('Context #1',
  '3D Context with UNIT and UNCERTAINTY') );
#952 = ( LENGTH_UNIT() NAMED_UNIT(*) SI_UNIT(.MILLI.,.METRE.) );
#953 = ( NAMED_UNIT(*) PLANE_ANGLE_UNIT() SI_UNIT($,.RADIAN.) );
#954 = ( NAMED_UNIT(*) SI_UNIT($,.STERADIAN.) SOLID_ANGLE_UNIT() );
#955 = UNCERTAINTY_MEASURE_WITH_UNIT(LENGTH_MEASURE(1.E-07),#952,
  'distance_accuracy_value','confusion accuracy');
#956 = CONTEXT_DEPENDENT_SHAPE_REPRESENTATION(#957,#959);
#957 = ( REPRESENTATION_RELATIONSHIP('','',#36,#10) 
REPRESENTATION_RELATIONSHIP_WITH_TRANSFORMATION(#958) 
SHAPE_REPRESENTATION_RELATIONSHIP() );
#958 = ITEM_DEFINED_TRANSFORMATION('','',#11,#15);
#959 = PRODUCT_DEFINITION_SHAPE('Placement','Placement of an item',#960
  );
#960 = NEXT_ASSEMBLY_USAGE_OCCURRENCE('8','','',#5,#31,$);
#961 = PRODUCT_RELATED_PRODUCT_CATEGORY('part',$,(#33));
#962 = SHAPE_DEFINITION_REPRESENTATION(#963,#969);
#963 = PRODUCT_DEFINITION_SHAPE('','',#964);
#964 = PRODUCT_DEFINITION('design','',#965,#968);
#965 = PRODUCT_DEFINITION_FORMATION('','',#966);
#966 = PRODUCT('Open CASCADE STEP translator 7.9 2.2',
  'Open CASCADE STEP translator 7.9 2.2','',(#967));
#967 = PRODUCT_CONTEXT('',#2,'mechanical');
#968 = PRODUCT_DEFINITION_CONTEXT('part definition',#2,'design');
#969 = ADVANCED_BREP_SHAPE_REPRESENTATION('',(#11,#970),#1420);
#970 = MANIFOLD_SOLID_BREP('',#971);
#971 = CLOSED_SHELL('',(#972,#1060,#1204,#1254,#1304,#1354,#1404));
#972 = ADVANCED_FACE('',(#973),#987,.T.);
#973 = FACE_BOUND('',#974,.F.);
#974 = EDGE_LOOP('',(#975,#1005,#1032,#1033));
#975 = ORIENTED_EDGE('',*,*,#976,.T.);
#976 = EDGE_CURVE('',#977,#979,#981,.T.);
#977 = VERTEX_POINT('',#978);
#978 = CARTESIAN_POINT('',(26.,0.,25.5));
#979 = VERTEX_POINT('',#980);
#980 = CARTESIAN_POINT('',(26.,0.,31.5));
#981 = SEAM_CURVE('',#982,(#986,#998),.PCURVE_S1.);
#982 = LINE('',#983,#984);
#983 = CARTESIAN_POINT('',(26.,0.,25.5));
#984 = VECTOR('',#985,1.);
#985 = DIRECTION('',(0.,0.,1.));
#986 = PCURVE('',#987,#992);
#987 = CYLINDRICAL_SURFACE('',#988,26.);
#988 = AXIS2_PLACEMENT_3D('',#989,#990,#991);
#989 = CARTESIAN_POINT('',(0.,0.,25.5));
#990 = DIRECTION('',(-0.,-0.,-1.));
#991 = DIRECTION('',(1.,0.,0.));
#992 = DEFINITIONAL_REPRESENTATION('',(#993),#997);
#993 = LINE('',#994,#995);
#994 = CARTESIAN_POINT('',(-0.,0.));
#995 = VECTOR('',#996,1.);
#996 = DIRECTION('',(-0.,-1.));
#997 = ( GEOMETRIC_REPRESENTATION_CONTEXT(2) 
PARAMETRIC_REPRESENTATION_CONTEXT() REPRESENTATION_CONTEXT('2D SPACE',''
  ) );
#998 = PCURVE('',#987,#999);
#999 = DEFINITIONAL_REPRESENTATION('',(#1000),#1004);
#1000 = LINE('',#1001,#1002);
#1001 = CARTESIAN_POINT('',(-6.28318530718,0.));
#1002 = VECTOR('',#1003,1.);
#1003 = DIRECTION('',(-0.,-1.));
#1004 = ( GEOMETRIC_REPRESENTATION_CONTEXT(2) 
PARAMETRIC_REPRESENTATION_CONTEXT() REPRESENTATION_CONTEXT('2D SPACE',''
  ) );
#1005 = ORIENTED_EDGE('',*,*,#1006,.T.);
#1006 = EDGE_CURVE('',#979,#979,#1007,.T.);
#1007 = SURFACE_CURVE('',#1008,(#1013,#1020),.PCURVE_S1.);
#1008 = CIRCLE('',#1009,26.);
#1009 = AXIS2_PLACEMENT_3D('',#1010,#1011,#1012);
#1010 = CARTESIAN_POINT('',(0.,0.,31.5));
#1011 = DIRECTION('',(0.,0.,1.));
#1012 = DIRECTION('',(1.,0.,0.));
#1013 = PCURVE('',#987,#1014);
#1014 = DEFINITIONAL_REPRESENTATION('',(#1015),#1019);
#1015 = LINE('',#1016,#1017);
#1016 = CARTESIAN_POINT('',(-0.,-6.));
#1017 = VECTOR('',#1018,1.);
#1018 = DIRECTION('',(-1.,0.));
#1019 = ( GEOMETRIC_REPRESENTATION_CONTEXT(2) 
PARAMETRIC_REPRESENTATION_CONTEXT() REPRESENTATION_CONTEXT('2D SPACE',''
  ) );
#1020 = PCURVE('',#1021,#1026);
#1021 = PLANE('',#1022);
#1022 = AXIS2_PLACEMENT_3D('',#1023,#1024,#1025);
#1023 = CARTESIAN_POINT('',(-8.415016200243E-16,1.463144300812E-15,31.5)
  );
#1024 = DIRECTION('',(0.,0.,1.));
#1025 = DIRECTION('',(1.,0.,-0.));
#1026 = DEFINITIONAL_REPRESENTATION('',(#1027),#1031);
#1027 = CIRCLE('',#1028,26.);
#1028 = AXIS2_PLACEMENT_2D('',#1029,#1030);
#1029 = CARTESIAN_POINT('',(8.415016200243E-16,-1.463144300812E-15));
#1030 = DIRECTION('',(1.,0.));
#1031 = ( GEOMETRIC_REPRESENTATION_CONTEXT(2) 
PARAMETRIC_REPRESENTATION_CONTEXT() REPRESENTATION_CONTEXT('2D SPACE',''
  ) );
#1032 = ORIENTED_EDGE('',*,*,#976,.F.);
#1033 = ORIENTED_EDGE('',*,*,#1034,.F.);
#1034 = EDGE_CURVE('',#977,#977,#1035,.T.);
#1035 = SURFACE_CURVE('',#1036,(#1041,#1048),.PCURVE_S1.);
#1036 = CIRCLE('',#1037,26.);
#1037 = AXIS2_PLACEMENT_3D('',#1038,#1039,#1040);
#1038 = CARTESIAN_POINT('',(0.,0.,25.5));
#1039 = DIRECTION('',(0.,0.,1.));
#1040 = DIRECTION('',(1.,0.,0.));
#1041 = PCURVE('',#987,#1042);
#1042 = DEFINITIONAL_REPRESENTATION('',(#1043),#1047);
#1043 = LINE('',#1044,#1045);
#1044 = CARTESIAN_POINT('',(-0.,0.));
#1045 = VECTOR('',#1046,1.);
#1046 = DIRECTION('',(-1.,0.));
#1047 = ( GEOMETRIC_REPRESENTATION_CONTEXT(2) 
PARAMETRIC_REPRESENTATION_CONTEXT() REPRESENTATION_CONTEXT('2D SPACE',''
  ) );
#1048 = PCURVE('',#1049,#1054);
#1049 = PLANE('',#1050);
#1050 = AXIS2_PLACEMENT_3D('',#1051,#1052,#1053);
#1051 = CARTESIAN_POINT('',(-8.415016200243E-16,1.463144300812E-15,25.5)
  );
#1052 = DIRECTION('',(0.,0.,1.));
#1053 = DIRECTION('',(1.,0.,-0.));
#1054 = DEFINITIONAL_REPRESENTATION('',(#1055),#1059);
#1055 = CIRCLE('',#1056,26.);
#1056 = AXIS2_PLACEMENT_2D('',#1057,#1058);
#1057 = CARTESIAN_POINT('',(8.415016200243E-16,-1.463144300812E-15));
#1058 = DIRECTION('',(1.,0.));
#1059 = ( GEOMETRIC_REPRESENTATION_CONTEXT(2) 
PARAMETRIC_REPRESENTATION_CONTEXT() REPRESENTATION_CONTEXT('2D SPACE',''
  ) );
#1060 = ADVANCED_FACE('',(#1061,#1064,#1099,#1134,#1169),#1021,.T.);
#1061 = FACE_BOUND('',#1062,.T.);
#1062 = EDGE_LOOP('',(#1063));
#1063 = ORIENTED_EDGE('',*,*,#1006,.T.);
#1064 = FACE_BOUND('',#1065,.T.);
#1065 = EDGE_LOOP('',(#1066));
#1066 = ORIENTED_EDGE('',*,*,#1067,.T.);
#1067 = EDGE_CURVE('',#1068,#1068,#1070,.T.);
#1068 = VERTEX_POINT('',#1069);
#1069 = CARTESIAN_POINT('',(-11.625,-20.13509063798,31.5));
#1070 = SURFACE_CURVE('',#1071,(#1076,#1087),.PCURVE_S1.);
#1071 = CIRCLE('',#1072,2.25);
#1072 = AXIS2_PLACEMENT_3D('',#1073,#1074,#1075);
#1073 = CARTESIAN_POINT('',(-10.5,-18.18653347947,31.5));
#1074 = DIRECTION('',(-0.,0.,-1.));
#1075 = DIRECTION('',(-0.5,-0.866025403784,0.));
#1076 = PCURVE('',#1021,#1077);
#1077 = DEFINITIONAL_REPRESENTATION('',(#1078),#1086);
#1078 = ( BOUNDED_CURVE() B_SPLINE_CURVE(2,(#1079,#1080,#1081,#1082,
#1083,#1084,#1085),.UNSPECIFIED.,.T.,.F.) B_SPLINE_CURVE_WITH_KNOTS((1,2
    ,2,2,2,1),(-2.094395102393,0.,2.094395102393,4.188790204786,
6.28318530718,8.377580409573),.UNSPECIFIED.) CURVE() 
GEOMETRIC_REPRESENTATION_ITEM() RATIONAL_B_SPLINE_CURVE((1.,0.5,1.,0.5,
1.,0.5,1.)) REPRESENTATION_ITEM('') );
#1079 = CARTESIAN_POINT('',(-11.625,-20.13509063798));
#1080 = CARTESIAN_POINT('',(-15.,-18.18653347947));
#1081 = CARTESIAN_POINT('',(-11.625,-16.23797632095));
#1082 = CARTESIAN_POINT('',(-8.25,-14.28941916244));
#1083 = CARTESIAN_POINT('',(-8.25,-18.18653347947));
#1084 = CARTESIAN_POINT('',(-8.25,-22.0836477965));
#1085 = CARTESIAN_POINT('',(-11.625,-20.13509063798));
#1086 = ( GEOMETRIC_REPRESENTATION_CONTEXT(2) 
PARAMETRIC_REPRESENTATION_CONTEXT() REPRESENTATION_CONTEXT('2D SPACE',''
  ) );
#1087 = PCURVE('',#1088,#1093);
#1088 = CYLINDRICAL_SURFACE('',#1089,2.25);
#1089 = AXIS2_PLACEMENT_3D('',#1090,#1091,#1092);
#1090 = CARTESIAN_POINT('',(-10.5,-18.18653347947,-20.5000002));
#1091 = DIRECTION('',(-0.,-0.,-1.));
#1092 = DIRECTION('',(-0.5,-0.866025403784,0.));
#1093 = DEFINITIONAL_REPRESENTATION('',(#1094),#1098);
#1094 = LINE('',#1095,#1096);
#1095 = CARTESIAN_POINT('',(-6.28318530718,-52.0000002));
#1096 = VECTOR('',#1097,1.);
#1097 = DIRECTION('',(1.,-0.));
#1098 = ( GEOMETRIC_REPRESENTATION_CONTEXT(2) 
PARAMETRIC_REPRESENTATION_CONTEXT() REPRESENTATION_CONTEXT('2D SPACE',''
  ) );
#1099 = FACE_BOUND('',#1100,.T.);
#1100 = EDGE_LOOP('',(#1101));
#1101 = ORIENTED_EDGE('',*,*,#1102,.T.);
#1102 = EDGE_CURVE('',#1103,#1103,#1105,.T.);
#1103 = VERTEX_POINT('',#1104);
#1104 = CARTESIAN_POINT('',(6.,0.,31.5));
#1105 = SURFACE_CURVE('',#1106,(#1111,#1122),.PCURVE_S1.);
#1106 = CIRCLE('',#1107,6.);
#1107 = AXIS2_PLACEMENT_3D('',#1108,#1109,#1110);
#1108 = CARTESIAN_POINT('',(0.,0.,31.5));
#1109 = DIRECTION('',(0.,0.,-1.));
#1110 = DIRECTION('',(1.,0.,0.));
#1111 = PCURVE('',#1021,#1112);
#1112 = DEFINITIONAL_REPRESENTATION('',(#1113),#1121);
#1113 = ( BOUNDED_CURVE() B_SPLINE_CURVE(2,(#1114,#1115,#1116,#1117,
#1118,#1119,#1120),.UNSPECIFIED.,.T.,.F.) B_SPLINE_CURVE_WITH_KNOTS((1,2
    ,2,2,2,1),(-2.094395102393,0.,2.094395102393,4.188790204786,
6.28318530718,8.377580409573),.UNSPECIFIED.) CURVE() 
GEOMETRIC_REPRESENTATION_ITEM() RATIONAL_B_SPLINE_CURVE((1.,0.5,1.,0.5,
1.,0.5,1.)) REPRESENTATION_ITEM('') );
#1114 = CARTESIAN_POINT('',(6.,-1.463144300812E-15));
#1115 = CARTESIAN_POINT('',(6.,-10.39230484541));
#1116 = CARTESIAN_POINT('',(-3.,-5.196152422707));
#1117 = CARTESIAN_POINT('',(-12.,-2.932720459789E-15));
#1118 = CARTESIAN_POINT('',(-3.,5.196152422707));
#1119 = CARTESIAN_POINT('',(6.,10.392304845413));
#1120 = CARTESIAN_POINT('',(6.,-1.463144300812E-15));
#1121 = ( GEOMETRIC_REPRESENTATION_CONTEXT(2) 
PARAMETRIC_REPRESENTATION_CONTEXT() REPRESENTATION_CONTEXT('2D SPACE',''
  ) );
#1122 = PCURVE('',#1123,#1128);
#1123 = CYLINDRICAL_SURFACE('',#1124,6.);
#1124 = AXIS2_PLACEMENT_3D('',#1125,#1126,#1127);
#1125 = CARTESIAN_POINT('',(0.,0.,-20.5000002));
#1126 = DIRECTION('',(-0.,-0.,-1.));
#1127 = DIRECTION('',(1.,0.,0.));
#1128 = DEFINITIONAL_REPRESENTATION('',(#1129),#1133);
#1129 = LINE('',#1130,#1131);
#1130 = CARTESIAN_POINT('',(-6.28318530718,-52.0000002));
#1131 = VECTOR('',#1132,1.);
#1132 = DIRECTION('',(1.,-0.));
#1133 = ( GEOMETRIC_REPRESENTATION_CONTEXT(2) 
PARAMETRIC_REPRESENTATION_CONTEXT() REPRESENTATION_CONTEXT('2D SPACE',''
  ) );
#1134 = FACE_BOUND('',#1135,.T.);
#1135 = EDGE_LOOP('',(#1136));
#1136 = ORIENTED_EDGE('',*,*,#1137,.T.);
#1137 = EDGE_CURVE('',#1138,#1138,#1140,.T.);
#1138 = VERTEX_POINT('',#1139);
#1139 = CARTESIAN_POINT('',(23.25,0.,31.5));
#1140 = SURFACE_CURVE('',#1141,(#1146,#1157),.PCURVE_S1.);
#1141 = CIRCLE('',#1142,2.25);
#1142 = AXIS2_PLACEMENT_3D('',#1143,#1144,#1145);
#1143 = CARTESIAN_POINT('',(21.,0.,31.5));
#1144 = DIRECTION('',(0.,0.,-1.));
#1145 = DIRECTION('',(1.,0.,0.));
#1146 = PCURVE('',#1021,#1147);
#1147 = DEFINITIONAL_REPRESENTATION('',(#1148),#1156);
#1148 = ( BOUNDED_CURVE() B_SPLINE_CURVE(2,(#1149,#1150,#1151,#1152,
#1153,#1154,#1155),.UNSPECIFIED.,.T.,.F.) B_SPLINE_CURVE_WITH_KNOTS((1,2
    ,2,2,2,1),(-2.094395102393,0.,2.094395102393,4.188790204786,
6.28318530718,8.377580409573),.UNSPECIFIED.) CURVE() 
GEOMETRIC_REPRESENTATION_ITEM() RATIONAL_B_SPLINE_CURVE((1.,0.5,1.,0.5,
1.,0.5,1.)) REPRESENTATION_ITEM('') );
#1149 = CARTESIAN_POINT('',(23.25,-1.463144300812E-15));
#1150 = CARTESIAN_POINT('',(23.25,-3.89711431703));
#1151 = CARTESIAN_POINT('',(19.875,-1.948557158515));
#1152 = CARTESIAN_POINT('',(16.5,-2.014235360428E-15));
#1153 = CARTESIAN_POINT('',(19.875,1.948557158515));
#1154 = CARTESIAN_POINT('',(23.25,3.89711431703));
#1155 = CARTESIAN_POINT('',(23.25,-1.463144300812E-15));
#1156 = ( GEOMETRIC_REPRESENTATION_CONTEXT(2) 
PARAMETRIC_REPRESENTATION_CONTEXT() REPRESENTATION_CONTEXT('2D SPACE',''
  ) );
#1157 = PCURVE('',#1158,#1163);
#1158 = CYLINDRICAL_SURFACE('',#1159,2.25);
#1159 = AXIS2_PLACEMENT_3D('',#1160,#1161,#1162);
#1160 = CARTESIAN_POINT('',(21.,0.,-20.5000002));
#1161 = DIRECTION('',(-0.,-0.,-1.));
#1162 = DIRECTION('',(1.,0.,0.));
#1163 = DEFINITIONAL_REPRESENTATION('',(#1164),#1168);
#1164 = LINE('',#1165,#1166);
#1165 = CARTESIAN_POINT('',(-6.28318530718,-52.0000002));
#1166 = VECTOR('',#1167,1.);
#1167 = DIRECTION('',(1.,-0.));
#1168 = ( GEOMETRIC_REPRESENTATION_CONTEXT(2) 
PARAMETRIC_REPRESENTATION_CONTEXT() REPRESENTATION_CONTEXT('2D SPACE',''
  ) );
#1169 = FACE_BOUND('',#1170,.T.);
#1170 = EDGE_LOOP('',(#1171));
#1171 = ORIENTED_EDGE('',*,*,#1172,.T.);
#1172 = EDGE_CURVE('',#1173,#1173,#1175,.T.);
#1173 = VERTEX_POINT('',#1174);
#1174 = CARTESIAN_POINT('',(-11.625,20.135090637988,31.5));
#1175 = SURFACE_CURVE('',#1176,(#1181,#1192),.PCURVE_S1.);
#1176 = CIRCLE('',#1177,2.25);
#1177 = AXIS2_PLACEMENT_3D('',#1178,#1179,#1180);
#1178 = CARTESIAN_POINT('',(-10.5,18.186533479473,31.5));
#1179 = DIRECTION('',(-0.,0.,-1.));
#1180 = DIRECTION('',(-0.5,0.866025403784,0.));
#1181 = PCURVE('',#1021,#1182);
#1182 = DEFINITIONAL_REPRESENTATION('',(#1183),#1191);
#1183 = ( BOUNDED_CURVE() B_SPLINE_CURVE(2,(#1184,#1185,#1186,#1187,
#1188,#1189,#1190),.UNSPECIFIED.,.T.,.F.) B_SPLINE_CURVE_WITH_KNOTS((1,2
    ,2,2,2,1),(-2.094395102393,0.,2.094395102393,4.188790204786,
6.28318530718,8.377580409573),.UNSPECIFIED.) CURVE() 
GEOMETRIC_REPRESENTATION_ITEM() RATIONAL_B_SPLINE_CURVE((1.,0.5,1.,0.5,
1.,0.5,1.)) REPRESENTATION_ITEM('') );
#1184 = CARTESIAN_POINT('',(-11.625,20.135090637988));
#1185 = CARTESIAN_POINT('',(-8.25,22.083647796503));
#1186 = CARTESIAN_POINT('',(-8.25,18.186533479473));
#1187 = CARTESIAN_POINT('',(-8.25,14.289419162443));
#1188 = CARTESIAN_POINT('',(-11.625,16.237976320958));
#1189 = CARTESIAN_POINT('',(-15.,18.186533479473));
#1190 = CARTESIAN_POINT('',(-11.625,20.135090637988));
#1191 = ( GEOMETRIC_REPRESENTATION_CONTEXT(2) 
PARAMETRIC_REPRESENTATION_CONTEXT() REPRESENTATION_CONTEXT('2D SPACE',''
  ) );
#1192 = PCURVE('',#1193,#1198);
#1193 = CYLINDRICAL_SURFACE('',#1194,2.25);
#1194 = AXIS2_PLACEMENT_3D('',#1195,#1196,#1197);
#1195 = CARTESIAN_POINT('',(-10.5,18.186533479473,-20.5000002));
#1196 = DIRECTION('',(-0.,-0.,-1.));
#1197 = DIRECTION('',(-0.5,0.866025403784,0.));
#1198 = DEFINITIONAL_REPRESENTATION('',(#1199),#1203);
#1199 = LINE('',#1200,#1201);
#1200 = CARTESIAN_POINT('',(-6.28318530718,-52.0000002));
#1201 = VECTOR('',#1202,1.);
#1202 = DIRECTION('',(1.,-0.));
#1203 = ( GEOMETRIC_REPRESENTATION_CONTEXT(2) 
PARAMETRIC_REPRESENTATION_CONTEXT() REPRESENTATION_CONTEXT('2D SPACE',''
  ) );
#1204 = ADVANCED_FACE('',(#1205),#1193,.F.);
#1205 = FACE_BOUND('',#1206,.T.);
#1206 = EDGE_LOOP('',(#1207,#1231,#1252,#1253));
#1207 = ORIENTED_EDGE('',*,*,#1208,.F.);
#1208 = EDGE_CURVE('',#1209,#1209,#1211,.T.);
#1209 = VERTEX_POINT('',#1210);
#1210 = CARTESIAN_POINT('',(-11.625,20.135090637988,25.5));
#1211 = SURFACE_CURVE('',#1212,(#1217,#1224),.PCURVE_S1.);
#1212 = CIRCLE('',#1213,2.25);
#1213 = AXIS2_PLACEMENT_3D('',#1214,#1215,#1216);
#1214 = CARTESIAN_POINT('',(-10.5,18.186533479473,25.5));
#1215 = DIRECTION('',(0.,0.,1.));
#1216 = DIRECTION('',(-0.5,0.866025403784,0.));
#1217 = PCURVE('',#1193,#1218);
#1218 = DEFINITIONAL_REPRESENTATION('',(#1219),#1223);
#1219 = LINE('',#1220,#1221);
#1220 = CARTESIAN_POINT('',(-0.,-46.0000002));
#1221 = VECTOR('',#1222,1.);
#1222 = DIRECTION('',(-1.,-0.));
#1223 = ( GEOMETRIC_REPRESENTATION_CONTEXT(2) 
PARAMETRIC_REPRESENTATION_CONTEXT() REPRESENTATION_CONTEXT('2D SPACE',''
  ) );
#1224 = PCURVE('',#1049,#1225);
#1225 = DEFINITIONAL_REPRESENTATION('',(#1226),#1230);
#1226 = CIRCLE('',#1227,2.25);
#1227 = AXIS2_PLACEMENT_2D('',#1228,#1229);
#1228 = CARTESIAN_POINT('',(-10.5,18.186533479473));
#1229 = DIRECTION('',(-0.5,0.866025403784));
#1230 = ( GEOMETRIC_REPRESENTATION_CONTEXT(2) 
PARAMETRIC_REPRESENTATION_CONTEXT() REPRESENTATION_CONTEXT('2D SPACE',''
  ) );
#1231 = ORIENTED_EDGE('',*,*,#1232,.T.);
#1232 = EDGE_CURVE('',#1209,#1173,#1233,.T.);
#1233 = SEAM_CURVE('',#1234,(#1238,#1245),.PCURVE_S1.);
#1234 = LINE('',#1235,#1236);
#1235 = CARTESIAN_POINT('',(-11.625,20.135090637988,-20.5000002));
#1236 = VECTOR('',#1237,1.);
#1237 = DIRECTION('',(0.,0.,1.));
#1238 = PCURVE('',#1193,#1239);
#1239 = DEFINITIONAL_REPRESENTATION('',(#1240),#1244);
#1240 = LINE('',#1241,#1242);
#1241 = CARTESIAN_POINT('',(-0.,0.));
#1242 = VECTOR('',#1243,1.);
#1243 = DIRECTION('',(-0.,-1.));
#1244 = ( GEOMETRIC_REPRESENTATION_CONTEXT(2) 
PARAMETRIC_REPRESENTATION_CONTEXT() REPRESENTATION_CONTEXT('2D SPACE',''
  ) );
#1245 = PCURVE('',#1193,#1246);
#1246 = DEFINITIONAL_REPRESENTATION('',(#1247),#1251);
#1247 = LINE('',#1248,#1249);
#1248 = CARTESIAN_POINT('',(-6.28318530718,0.));
#1249 = VECTOR('',#1250,1.);
#1250 = DIRECTION('',(-0.,-1.));
#1251 = ( GEOMETRIC_REPRESENTATION_CONTEXT(2) 
PARAMETRIC_REPRESENTATION_CONTEXT() REPRESENTATION_CONTEXT('2D SPACE',''
  ) );
#1252 = ORIENTED_EDGE('',*,*,#1172,.F.);
#1253 = ORIENTED_EDGE('',*,*,#1232,.F.);
#1254 = ADVANCED_FACE('',(#1255),#1158,.F.);
#1255 = FACE_BOUND('',#1256,.T.);
#1256 = EDGE_LOOP('',(#1257,#1281,#1302,#1303));
#1257 = ORIENTED_EDGE('',*,*,#1258,.F.);
#1258 = EDGE_CURVE('',#1259,#1259,#1261,.T.);
#1259 = VERTEX_POINT('',#1260);
#1260 = CARTESIAN_POINT('',(23.25,0.,25.5));
#1261 = SURFACE_CURVE('',#1262,(#1267,#1274),.PCURVE_S1.);
#1262 = CIRCLE('',#1263,2.25);
#1263 = AXIS2_PLACEMENT_3D('',#1264,#1265,#1266);
#1264 = CARTESIAN_POINT('',(21.,1.887379141863E-15,25.5));
#1265 = DIRECTION('',(0.,0.,1.));
#1266 = DIRECTION('',(1.,-5.939058143318E-16,0.));
#1267 = PCURVE('',#1158,#1268);
#1268 = DEFINITIONAL_REPRESENTATION('',(#1269),#1273);
#1269 = LINE('',#1270,#1271);
#1270 = CARTESIAN_POINT('',(-0.,-46.0000002));
#1271 = VECTOR('',#1272,1.);
#1272 = DIRECTION('',(-1.,-0.));
#1273 = ( GEOMETRIC_REPRESENTATION_CONTEXT(2) 
PARAMETRIC_REPRESENTATION_CONTEXT() REPRESENTATION_CONTEXT('2D SPACE',''
  ) );
#1274 = PCURVE('',#1049,#1275);
#1275 = DEFINITIONAL_REPRESENTATION('',(#1276),#1280);
#1276 = CIRCLE('',#1277,2.25);
#1277 = AXIS2_PLACEMENT_2D('',#1278,#1279);
#1278 = CARTESIAN_POINT('',(21.,4.24234841051E-16));
#1279 = DIRECTION('',(1.,-5.939058143318E-16));
#1280 = ( GEOMETRIC_REPRESENTATION_CONTEXT(2) 
PARAMETRIC_REPRESENTATION_CONTEXT() REPRESENTATION_CONTEXT('2D SPACE',''
  ) );
#1281 = ORIENTED_EDGE('',*,*,#1282,.T.);
#1282 = EDGE_CURVE('',#1259,#1138,#1283,.T.);
#1283 = SEAM_CURVE('',#1284,(#1288,#1295),.PCURVE_S1.);
#1284 = LINE('',#1285,#1286);
#1285 = CARTESIAN_POINT('',(23.25,0.,-20.5000002));
#1286 = VECTOR('',#1287,1.);
#1287 = DIRECTION('',(0.,0.,1.));
#1288 = PCURVE('',#1158,#1289);
#1289 = DEFINITIONAL_REPRESENTATION('',(#1290),#1294);
#1290 = LINE('',#1291,#1292);
#1291 = CARTESIAN_POINT('',(-0.,0.));
#1292 = VECTOR('',#1293,1.);
#1293 = DIRECTION('',(-0.,-1.));
#1294 = ( GEOMETRIC_REPRESENTATION_CONTEXT(2) 
PARAMETRIC_REPRESENTATION_CONTEXT() REPRESENTATION_CONTEXT('2D SPACE',''
  ) );
#1295 = PCURVE('',#1158,#1296);
#1296 = DEFINITIONAL_REPRESENTATION('',(#1297),#1301);
#1297 = LINE('',#1298,#1299);
#1298 = CARTESIAN_POINT('',(-6.28318530718,0.));
#1299 = VECTOR('',#1300,1.);
#1300 = DIRECTION('',(-0.,-1.));
#1301 = ( GEOMETRIC_REPRESENTATION_CONTEXT(2) 
PARAMETRIC_REPRESENTATION_CONTEXT() REPRESENTATION_CONTEXT('2D SPACE',''
  ) );
#1302 = ORIENTED_EDGE('',*,*,#1137,.F.);
#1303 = ORIENTED_EDGE('',*,*,#1282,.F.);
#1304 = ADVANCED_FACE('',(#1305),#1123,.F.);
#1305 = FACE_BOUND('',#1306,.T.);
#1306 = EDGE_LOOP('',(#1307,#1331,#1352,#1353));
#1307 = ORIENTED_EDGE('',*,*,#1308,.F.);
#1308 = EDGE_CURVE('',#1309,#1309,#1311,.T.);
#1309 = VERTEX_POINT('',#1310);
#1310 = CARTESIAN_POINT('',(6.,0.,25.5));
#1311 = SURFACE_CURVE('',#1312,(#1317,#1324),.PCURVE_S1.);
#1312 = CIRCLE('',#1313,6.);
#1313 = AXIS2_PLACEMENT_3D('',#1314,#1315,#1316);
#1314 = CARTESIAN_POINT('',(3.925635799609E-16,2.22044604925E-16,25.5));
#1315 = DIRECTION('',(0.,0.,1.));
#1316 = DIRECTION('',(1.,2.079219256753E-16,-0.));
#1317 = PCURVE('',#1123,#1318);
#1318 = DEFINITIONAL_REPRESENTATION('',(#1319),#1323);
#1319 = LINE('',#1320,#1321);
#1320 = CARTESIAN_POINT('',(-0.,-46.0000002));
#1321 = VECTOR('',#1322,1.);
#1322 = DIRECTION('',(-1.,-0.));
#1323 = ( GEOMETRIC_REPRESENTATION_CONTEXT(2) 
PARAMETRIC_REPRESENTATION_CONTEXT() REPRESENTATION_CONTEXT('2D SPACE',''
  ) );
#1324 = PCURVE('',#1049,#1325);
#1325 = DEFINITIONAL_REPRESENTATION('',(#1326),#1330);
#1326 = CIRCLE('',#1327,6.);
#1327 = AXIS2_PLACEMENT_2D('',#1328,#1329);
#1328 = CARTESIAN_POINT('',(1.234065199985E-15,-1.241099695887E-15));
#1329 = DIRECTION('',(1.,2.079219256753E-16));
#1330 = ( GEOMETRIC_REPRESENTATION_CONTEXT(2) 
PARAMETRIC_REPRESENTATION_CONTEXT() REPRESENTATION_CONTEXT('2D SPACE',''
  ) );
#1331 = ORIENTED_EDGE('',*,*,#1332,.T.);
#1332 = EDGE_CURVE('',#1309,#1103,#1333,.T.);
#1333 = SEAM_CURVE('',#1334,(#1338,#1345),.PCURVE_S1.);
#1334 = LINE('',#1335,#1336);
#1335 = CARTESIAN_POINT('',(6.,0.,-20.5000002));
#1336 = VECTOR('',#1337,1.);
#1337 = DIRECTION('',(0.,0.,1.));
#1338 = PCURVE('',#1123,#1339);
#1339 = DEFINITIONAL_REPRESENTATION('',(#1340),#1344);
#1340 = LINE('',#1341,#1342);
#1341 = CARTESIAN_POINT('',(-0.,0.));
#1342 = VECTOR('',#1343,1.);
#1343 = DIRECTION('',(-0.,-1.));
#1344 = ( GEOMETRIC_REPRESENTATION_CONTEXT(2) 
PARAMETRIC_REPRESENTATION_CONTEXT() REPRESENTATION_CONTEXT('2D SPACE',''
  ) );
#1345 = PCURVE('',#1123,#1346);
#1346 = DEFINITIONAL_REPRESENTATION('',(#1347),#1351);
#1347 = LINE('',#1348,#1349);
#1348 = CARTESIAN_POINT('',(-6.28318530718,0.));
#1349 = VECTOR('',#1350,1.);
#1350 = DIRECTION('',(-0.,-1.));
#1351 = ( GEOMETRIC_REPRESENTATION_CONTEXT(2) 
PARAMETRIC_REPRESENTATION_CONTEXT() REPRESENTATION_CONTEXT('2D SPACE',''
  ) );
#1352 = ORIENTED_EDGE('',*,*,#1102,.F.);
#1353 = ORIENTED_EDGE('',*,*,#1332,.F.);
#1354 = ADVANCED_FACE('',(#1355),#1088,.F.);
#1355 = FACE_BOUND('',#1356,.T.);
#1356 = EDGE_LOOP('',(#1357,#1381,#1402,#1403));
#1357 = ORIENTED_EDGE('',*,*,#1358,.F.);
#1358 = EDGE_CURVE('',#1359,#1359,#1361,.T.);
#1359 = VERTEX_POINT('',#1360);
#1360 = CARTESIAN_POINT('',(-11.625,-20.13509063798,25.5));
#1361 = SURFACE_CURVE('',#1362,(#1367,#1374),.PCURVE_S1.);
#1362 = CIRCLE('',#1363,2.25);
#1363 = AXIS2_PLACEMENT_3D('',#1364,#1365,#1366);
#1364 = CARTESIAN_POINT('',(-10.5,-18.18653347947,25.5));
#1365 = DIRECTION('',(0.,0.,1.));
#1366 = DIRECTION('',(-0.5,-0.866025403784,0.));
#1367 = PCURVE('',#1088,#1368);
#1368 = DEFINITIONAL_REPRESENTATION('',(#1369),#1373);
#1369 = LINE('',#1370,#1371);
#1370 = CARTESIAN_POINT('',(-8.881784197001E-16,-46.0000002));
#1371 = VECTOR('',#1372,1.);
#1372 = DIRECTION('',(-1.,-0.));
#1373 = ( GEOMETRIC_REPRESENTATION_CONTEXT(2) 
PARAMETRIC_REPRESENTATION_CONTEXT() REPRESENTATION_CONTEXT('2D SPACE',''
  ) );
#1374 = PCURVE('',#1049,#1375);
#1375 = DEFINITIONAL_REPRESENTATION('',(#1376),#1380);
#1376 = CIRCLE('',#1377,2.25);
#1377 = AXIS2_PLACEMENT_2D('',#1378,#1379);
#1378 = CARTESIAN_POINT('',(-10.5,-18.18653347947));
#1379 = DIRECTION('',(-0.5,-0.866025403784));
#1380 = ( GEOMETRIC_REPRESENTATION_CONTEXT(2) 
PARAMETRIC_REPRESENTATION_CONTEXT() REPRESENTATION_CONTEXT('2D SPACE',''
  ) );
#1381 = ORIENTED_EDGE('',*,*,#1382,.T.);
#1382 = EDGE_CURVE('',#1359,#1068,#1383,.T.);
#1383 = SEAM_CURVE('',#1384,(#1388,#1395),.PCURVE_S1.);
#1384 = LINE('',#1385,#1386);
#1385 = CARTESIAN_POINT('',(-11.625,-20.13509063798,-20.5000002));
#1386 = VECTOR('',#1387,1.);
#1387 = DIRECTION('',(0.,0.,1.));
#1388 = PCURVE('',#1088,#1389);
#1389 = DEFINITIONAL_REPRESENTATION('',(#1390),#1394);
#1390 = LINE('',#1391,#1392);
#1391 = CARTESIAN_POINT('',(-0.,0.));
#1392 = VECTOR('',#1393,1.);
#1393 = DIRECTION('',(-0.,-1.));
#1394 = ( GEOMETRIC_REPRESENTATION_CONTEXT(2) 
PARAMETRIC_REPRESENTATION_CONTEXT() REPRESENTATION_CONTEXT('2D SPACE',''
  ) );
#1395 = PCURVE('',#1088,#1396);
#1396 = DEFINITIONAL_REPRESENTATION('',(#1397),#1401);
#1397 = LINE('',#1398,#1399);
#1398 = CARTESIAN_POINT('',(-6.28318530718,0.));
#1399 = VECTOR('',#1400,1.);
#1400 = DIRECTION('',(-0.,-1.));
#1401 = ( GEOMETRIC_REPRESENTATION_CONTEXT(2) 
PARAMETRIC_REPRESENTATION_CONTEXT() REPRESENTATION_CONTEXT('2D SPACE',''
  ) );
#1402 = ORIENTED_EDGE('',*,*,#1067,.F.);
#1403 = ORIENTED_EDGE('',*,*,#1382,.F.);
#1404 = ADVANCED_FACE('',(#1405,#1408,#1411,#1414,#1417),#1049,.F.);
#1405 = FACE_BOUND('',#1406,.F.);
#1406 = EDGE_LOOP('',(#1407));
#1407 = ORIENTED_EDGE('',*,*,#1034,.T.);
#1408 = FACE_BOUND('',#1409,.F.);
#1409 = EDGE_LOOP('',(#1410));
#1410 = ORIENTED_EDGE('',*,*,#1358,.F.);
#1411 = FACE_BOUND('',#1412,.F.);
#1412 = EDGE_LOOP('',(#1413));
#1413 = ORIENTED_EDGE('',*,*,#1308,.F.);
#1414 = FACE_BOUND('',#1415,.F.);
#1415 = EDGE_LOOP('',(#1416));
#1416 = ORIENTED_EDGE('',*,*,#1258,.F.);
#1417 = FACE_BOUND('',#1418,.F.);
#1418 = EDGE_LOOP('',(#1419));
#1419 = ORIENTED_EDGE('',*,*,#1208,.F.);
#1420 = ( GEOMETRIC_REPRESENTATION_CONTEXT(3) 
GLOBAL_UNCERTAINTY_ASSIGNED_CONTEXT((#1424)) 
GLOBAL_UNIT_ASSIGNED_CONTEXT((#1421,#1422,#1423)) REPRESENTATION_CONTEXT
('Context #1','3D Context with UNIT and UNCERTAINTY') );
#1421 = ( LENGTH_UNIT() NAMED_UNIT(*) SI_UNIT(.MILLI.,.METRE.) );
#1422 = ( NAMED_UNIT(*) PLANE_ANGLE_UNIT() SI_UNIT($,.RADIAN.) );
#1423 = ( NAMED_UNIT(*) SI_UNIT($,.STERADIAN.) SOLID_ANGLE_UNIT() );
#1424 = UNCERTAINTY_MEASURE_WITH_UNIT(LENGTH_MEASURE(1.E-07),#1421,
  'distance_accuracy_value','confusion accuracy');
#1425 = CONTEXT_DEPENDENT_SHAPE_REPRESENTATION(#1426,#1428);
#1426 = ( REPRESENTATION_RELATIONSHIP('','',#969,#10) 
REPRESENTATION_RELATIONSHIP_WITH_TRANSFORMATION(#1427) 
SHAPE_REPRESENTATION_RELATIONSHIP() );
#1427 = ITEM_DEFINED_TRANSFORMATION('','',#11,#19);
#1428 = PRODUCT_DEFINITION_SHAPE('Placement','Placement of an item',
  #1429);
#1429 = NEXT_ASSEMBLY_USAGE_OCCURRENCE('9','','',#5,#964,$);
#1430 = PRODUCT_RELATED_PRODUCT_CATEGORY('part',$,(#966));
ENDSEC;
END-ISO-10303-21;
